<svg width="163" height="49" viewBox="0 0 163 49" fill="none" xmlns="http://www.w3.org/2000/svg">
<path fill-rule="evenodd" clip-rule="evenodd" d="M125.924 7.49805L138.2 6.76421C131.716 6.54705 127.869 6.54705 126.659 6.67711L124.843 7.0661C124.627 7.28147 125.016 7.41154 125.924 7.49805Z" fill="#7B7979"/>
<path fill-rule="evenodd" clip-rule="evenodd" d="M123.2 10.5677L143.388 10.134L123.849 9.44252C121.254 9.27011 119.828 9.44254 119.613 9.91803C119.223 10.5677 120.477 10.7831 123.2 10.5677Z" fill="#7B7979"/>
<path fill-rule="evenodd" clip-rule="evenodd" d="M116.067 14.46L146.544 13.3789L119.093 13.0335C117.018 13.0335 115.937 13.2488 115.937 13.6814L116.067 14.46Z" fill="#7B7979"/>
<path fill-rule="evenodd" clip-rule="evenodd" d="M118.099 18.5215L148.704 17.1392L115.548 16.619C114.683 16.7073 114.209 16.9221 114.122 17.3552C113.994 18.3056 115.289 18.6516 118.099 18.5215Z" fill="#7B7979"/>
<path fill-rule="evenodd" clip-rule="evenodd" d="M113.689 22.0234L149.915 21.1154L116.413 20.1644C114.251 20.1644 113.128 20.511 112.954 21.332C112.912 21.6786 113.171 21.9799 113.689 22.0234Z" fill="#7B7979"/>
<path fill-rule="evenodd" clip-rule="evenodd" d="M113.387 25.6973L124.842 25.5678L126.441 23.7518H114.986C113.257 23.7518 112.479 24.1402 112.695 24.9187C112.737 25.3524 112.953 25.6543 113.387 25.6973Z" fill="#7B7979"/>
<path fill-rule="evenodd" clip-rule="evenodd" d="M115.936 29.5439L123.199 29.0249L124.15 27.3831L115.635 27.5125C113.993 27.5125 113.17 27.8579 113.17 28.5058C113.17 29.0249 113.387 29.328 113.775 29.3715L115.936 29.5439Z" fill="#7B7979"/>
<path fill-rule="evenodd" clip-rule="evenodd" d="M117.062 33.0034L135.521 32.2684L134.224 30.9725L116.414 31.1014L114.556 31.3168C114.338 31.4892 114.251 31.7493 114.338 32.1383C114.468 32.9175 115.419 33.2193 117.062 33.0034Z" fill="#7B7979"/>
<path fill-rule="evenodd" clip-rule="evenodd" d="M137.985 35.2951L119.612 35.1644C117.363 35.1644 116.369 35.4239 116.414 36.0719C116.629 36.894 117.883 37.1105 120.26 36.894L139.108 36.4614L137.985 35.2951Z" fill="#7B7979"/>
<path fill-rule="evenodd" clip-rule="evenodd" d="M140.275 39.0563L120.52 38.8827C120.088 38.8827 119.872 39.0563 119.872 39.4012C119.872 40.0503 121.254 40.3522 123.978 40.1797L142.22 39.5312L140.275 39.0563Z" fill="#929294"/>
<path fill-rule="evenodd" clip-rule="evenodd" d="M127.825 42.8584L138.633 42.5118L127.306 42.0792C125.794 41.8639 125.015 41.9927 125.015 42.5118L127.825 42.8584Z" fill="#929294"/>
<path fill-rule="evenodd" clip-rule="evenodd" d="M158.56 2.35473C154.627 4.04131 146.976 8.49312 135.65 15.842C141.486 12.5995 146.845 10.0914 151.816 8.27717L160.679 5.33714L162.407 5.4666C162.753 5.68316 162.235 5.98562 161.024 6.33105C158.95 6.98015 155.102 8.57905 149.482 11.1719C142.998 14.1137 139.279 16.1881 138.2 17.4839L145.679 17.6575C144.597 18.9981 143.301 19.7331 141.787 19.8196L140.361 19.8625C142.005 22.543 144.685 24.0548 148.358 24.2714L150.865 24.4008L150.996 26.3476L140.49 27.3844L150.649 28.0323C150.781 29.5453 150.738 30.3233 150.521 30.3233H140.275L149.698 31.7068L149.136 34.1272L140.621 34.7769L148.185 35.5966L146.413 38.0176L141.787 38.6232L145.376 39.4011L141.441 42.124C138.632 39.3146 136.514 36.9372 135.174 35.1647L132.407 31.3172L128.603 32.1387C131.932 29.7619 133.704 27.9458 134.006 26.8648C133.921 24.7898 133.79 23.4069 133.574 22.6295L132.191 24.0548C131.975 21.9799 131.629 20.6846 131.284 20.1644L130.764 21.7645L128.474 23.7524L130.115 23.6235C129.122 29.1569 126.874 32.7007 123.329 34.1272L121.254 31.9663L122.681 30.6693L120.519 31.3172L120.087 30.6693C122.205 27.1691 123.848 24.7039 125.144 23.2775L131.412 17.5704C134.958 14.6315 138.2 12.167 141.268 10.2221C149.266 5.38009 155.059 2.31116 158.56 1.01416C159.944 0.495712 160.505 0.581646 160.159 1.14364L158.56 2.35473Z" fill="#740232"/>
<path fill-rule="evenodd" clip-rule="evenodd" d="M108.207 39.2569V46.4775H106.859V40.6708C106.729 40.7144 106.641 40.6708 106.619 40.5616L106.729 40.2353L108.207 39.2569ZM95.8604 45.2819H88.4578V44.0135C88.6642 43.6502 88.987 43.4551 89.4589 43.4551H94.8957C95.4177 43.4551 95.7011 43.5637 95.8091 43.8244L95.8747 44.4336L95.8604 45.2819ZM101.857 38.9747C102.378 38.9747 102.617 39.1913 102.617 39.5826C102.617 39.9102 102.378 40.0832 101.857 40.0832C101.464 40.0832 101.247 39.9102 101.247 39.5826C101.247 39.1913 101.464 38.9747 101.857 38.9747ZM100.095 38.9747C100.637 38.9747 100.877 39.1913 100.877 39.5826C100.877 39.9102 100.637 40.0832 100.095 40.0832C99.6798 40.0832 99.4633 39.9102 99.4633 39.5826C99.4633 39.1913 99.6798 38.9747 100.095 38.9747ZM80.1925 46.913C80.6937 46.913 80.955 47.1302 80.955 47.5222C80.955 47.8479 80.6937 48.0215 80.1925 48.0215C79.7588 48.0215 79.5404 47.8479 79.5404 47.5222C79.5404 47.1302 79.7588 46.913 80.1925 46.913ZM78.4099 46.913C78.9098 46.913 79.1711 47.1302 79.1711 47.5222C79.1711 47.8479 78.9098 48.0215 78.4099 48.0215C77.9744 48.0215 77.7566 47.8479 77.7566 47.5222C77.7566 47.1302 77.9744 46.913 78.4099 46.913ZM75.7998 39.0827C76.3427 39.0827 76.604 39.2998 76.604 39.6912C76.604 40.0181 76.3427 40.1918 75.7998 40.1918C75.4078 40.1918 75.19 40.0181 75.19 39.6912C75.19 39.2998 75.4078 39.0827 75.7998 39.0827ZM74.1024 39.0827C74.6471 39.0827 74.8864 39.2998 74.8864 39.6912C74.8864 40.0181 74.6471 40.1918 74.1024 40.1918C73.6896 40.1918 73.4718 40.0181 73.4718 39.6912C73.4718 39.2998 73.6896 39.0827 74.1024 39.0827ZM74.4509 45.2819H75.8427V43.5637L74.7766 44.1066C74.4509 44.3244 74.3417 44.7378 74.4509 45.2819ZM101.508 42.781C100.921 42.9552 100.637 43.1712 100.637 43.4981H101.508V42.781ZM77.1481 39.8654V45.2819H81.128V43.7588C80.6937 43.6508 80.6495 43.4325 81.0188 43.1061L82.3904 42.1498V46.4775H73.124L73.2982 44.4336C73.2982 44.0416 73.6896 43.5417 74.4944 42.9976C74.9723 42.6712 75.4078 42.4105 75.7998 42.2363L75.8648 41.7149C75.5391 41.6057 75.4293 41.4971 75.5391 41.3885L77.1481 39.8654ZM99.6798 44.4121V43.2804C99.6798 42.6927 100.442 42.0842 101.943 41.475L102.77 41.0616V45.2819H104.553V40.6708L104.292 40.5616C104.248 40.4531 104.292 40.3451 104.401 40.2353C104.576 40.0832 105.054 39.7574 105.858 39.2133V46.4775H85.4134C85.4134 47.1517 85.1521 47.6958 84.608 48.0657L83.4553 48.4355C83.086 48.4355 82.7155 48.2393 82.3242 47.8921C82.107 47.6958 82.1506 47.5866 82.3904 47.5651C82.9333 47.7393 83.3682 47.6749 83.6946 47.37C84.0209 47.1517 84.173 46.8695 84.173 46.4775L84.2387 42.9105L83.8902 42.781C83.8031 42.6927 83.8467 42.5841 84.0209 42.4761L85.4354 41.4321L85.4784 45.2819H87.1095V40.7794C86.7181 40.6058 86.7181 40.3451 87.1095 40.0617L88.4578 39.1047V42.7213C88.814 42.3747 89.3306 42.1928 89.9797 42.1928H94.9387C95.4816 42.1928 95.9827 42.3675 96.4618 42.7368C96.9408 43.1282 97.1795 43.6717 97.1795 44.3685L97.1658 45.2819H101.508V44.4121H99.6798Z" fill="#740232"/>
<path fill-rule="evenodd" clip-rule="evenodd" d="M34.1489 25.0362L37.3592 17.1664L40.5689 25.0362H34.1489ZM44.269 34.1045H49.3067L39.2301 11.5524H37.3592L27.5225 34.1045H30.4494L33.3077 27.0992H41.4107L44.269 34.1045Z" fill="#740232"/>
<path fill-rule="evenodd" clip-rule="evenodd" d="M71.2905 25.0362L74.5008 17.1664L77.7105 25.0362H71.2905ZM81.4094 34.1045H86.4483L76.3717 11.5524H74.5008L64.6641 34.1045H67.5904L70.4487 27.0992H78.5523L81.4094 34.1045Z" fill="#740232"/>
<path fill-rule="evenodd" clip-rule="evenodd" d="M48.5513 11.5524H65.6212V14.2873H59.5269V34.1045H54.6807V14.2873H48.5513V11.5524Z" fill="#740232"/>
<path fill-rule="evenodd" clip-rule="evenodd" d="M12.774 33.0974C8.1193 33.0974 4.34701 28.6313 4.34701 23.1241C4.34701 17.6157 8.1193 13.1502 12.774 13.1502C17.4286 13.1502 21.2009 17.6157 21.2009 23.1241C21.2009 28.6313 17.4286 33.0974 12.774 33.0974ZM25.4654 23.1241C25.4654 16.4195 19.784 10.9839 12.774 10.9839C5.76453 10.9839 0.0825195 16.4195 0.0825195 23.1241C0.0825195 29.8275 5.76453 35.2637 12.774 35.2637C13.407 35.2637 14.0238 35.2046 14.6318 35.1193L21.3811 41.207L24.9798 38.3278L17.8492 34.2471C22.3309 32.3738 25.4654 28.1009 25.4654 23.1241Z" fill="#740232"/>
<path fill-rule="evenodd" clip-rule="evenodd" d="M94.1705 22.2047V12.7516H99.2571C99.2571 12.7516 101.991 14.2879 101.991 17.1187C101.991 19.9496 100.793 22.2047 99.0644 22.2047C97.3367 22.2047 94.1705 22.2047 94.1705 22.2047ZM99.7368 23.5966C102.087 23.1169 105.471 20.9089 105.471 16.4708C105.471 12.0327 100.23 11.5524 100.23 11.5524H94.1705H92.3133H90.2354V34.1045H94.1705V24.0762H95.5141L101.991 33.8647H107.558L99.7368 23.5966Z" fill="#740232"/>
<path d="M28.3087 42.8648H30.8037L29.5771 39.432H29.5562L28.3087 42.8648ZM29.0408 38.5454H30.1236L32.9998 45.9062H31.917L31.1133 43.6899H27.9997L27.1746 45.9062H26.1646L29.0408 38.5454Z" fill="#7B7979"/>
<path d="M33.7632 45.9062H34.7422V38.5452H33.7632V45.9062Z" fill="#7B7979"/>
<path d="M39.4118 41.9371C40.3294 41.9371 41.1127 41.7002 41.1127 40.6281C41.1127 39.9062 40.7213 39.3699 39.8038 39.3699H37.3708V41.9371H39.4118ZM36.3906 38.5454H39.8557C41.2368 38.5454 42.0923 39.2977 42.0923 40.473C42.0923 41.3602 41.701 42.0922 40.8144 42.3392V42.3601C41.6699 42.5247 41.8453 43.1541 41.9169 43.8754C41.9796 44.5973 41.9378 45.4015 42.3501 45.9062H41.2577C40.9791 45.608 41.1342 44.8139 40.9892 44.092C40.886 43.3701 40.7112 42.7616 39.7626 42.7616H37.3708V45.9062H36.3906V38.5454Z" fill="#7B7979"/>
<path d="M49.9178 45.9062H48.897L47.2158 39.7201H47.1961L45.4946 45.9062H44.4738L42.5874 38.5454H43.5867L45.0305 44.6695H45.0514L46.7009 38.5454H47.7623L49.3916 44.6695H49.4125L50.9076 38.5454H51.8866L49.9178 45.9062Z" fill="#7B7979"/>
<path d="M53.8362 42.8648H56.3306L55.1039 39.432H55.0831L53.8362 42.8648ZM54.5682 38.5454H55.6504L58.5266 45.9062H57.4444L56.6402 43.6899H53.5265L52.7014 45.9062H51.6914L54.5682 38.5454Z" fill="#7B7979"/>
<path d="M61.5268 42.8958V45.9062H60.5478V42.8958L57.7026 38.5454H58.8672L61.074 42.0504L63.2283 38.5454H64.3422L61.5268 42.8958Z" fill="#7B7979"/>
<path d="M69.4251 40.6991C69.3111 39.6479 68.6101 39.1939 67.6001 39.1939C66.775 39.1939 65.9505 39.4934 65.9505 40.4516C65.9505 41.3596 67.1258 41.4932 68.3112 41.7611C69.4865 42.0289 70.6618 42.4418 70.6618 43.885C70.6618 45.4522 69.1262 46.0811 67.7856 46.0811C66.136 46.0811 64.7441 45.2769 64.7441 43.4829H65.6725C65.6725 44.7202 66.7034 45.2566 67.8166 45.2566C68.7032 45.2566 69.6828 44.9779 69.6828 43.916C69.6828 42.9054 68.5075 42.7306 67.3322 42.4728C66.1563 42.2151 64.9709 41.875 64.9709 40.5243C64.9709 39.0292 66.3007 38.3694 67.6412 38.3694C69.1464 38.3694 70.2907 39.0812 70.3528 40.6991H69.4251Z" fill="#7B7979"/>
</svg>
