<svg width="833" height="734" viewBox="0 0 833 734" fill="none" xmlns="http://www.w3.org/2000/svg">
<path d="M347.983 725.906C329.937 698.432 252.903 582.91 230.361 579.82C208.393 576.809 130.329 693.619 109.213 725.906H347.983Z" fill="#2E353A" stroke="#2E353A" stroke-linecap="round" stroke-linejoin="round"/>
<path d="M446.767 50.8975V317.3" stroke="#2E353A" stroke-width="3" stroke-linecap="round" stroke-linejoin="round"/>
<path d="M478.421 58.0479V317.3" stroke="#2E353A" stroke-width="3" stroke-linecap="round" stroke-linejoin="round"/>
<path d="M513.125 199.915V451.026" stroke="#2E353A" stroke-width="3" stroke-linecap="round" stroke-linejoin="round"/>
<path d="M549.87 58.0479V451.026" stroke="#2E353A" stroke-width="3" stroke-linecap="round" stroke-linejoin="round"/>
<path d="M586.614 58.0479V324.45" stroke="#2E353A" stroke-width="3" stroke-linecap="round" stroke-linejoin="round"/>
<path d="M419.213 86.6113H587.644" stroke="#2E353A" stroke-width="3" stroke-linecap="round" stroke-linejoin="round"/>
<path d="M419.213 145.819H601.866" stroke="#2E353A" stroke-width="3" stroke-linecap="round" stroke-linejoin="round"/>
<path d="M416.163 199.915H619.278" stroke="#2E353A" stroke-width="3" stroke-linecap="round" stroke-linejoin="round"/>
<path d="M413.093 260.152H619.278" stroke="#2E353A" stroke-width="3" stroke-linecap="round" stroke-linejoin="round"/>
<path d="M451.877 325.461H608.047" stroke="#2E353A" stroke-width="3" stroke-linecap="round" stroke-linejoin="round"/>
<path d="M492.703 388.748H594.775" stroke="#2E353A" stroke-width="3" stroke-linecap="round" stroke-linejoin="round"/>
<path d="M223.982 76.1924L260.014 104.399" stroke="#2E353A" stroke-width="2" stroke-linecap="round" stroke-linejoin="round"/>
<path d="M296.045 46.4404L308.584 65.2386" stroke="#2E353A" stroke-width="2" stroke-linecap="round" stroke-linejoin="round"/>
<path d="M360.284 1L371.258 35.4665" stroke="#2E353A" stroke-width="2" stroke-linecap="round" stroke-linejoin="round"/>
<path d="M565.855 443.915H506.43V302.622H425.81V52.3828C391.833 52.7183 358.513 61.7884 329.054 78.7212C299.595 95.6541 274.987 119.88 257.595 149.071C240.204 178.262 230.613 211.436 229.747 245.403C228.88 279.371 236.765 312.991 252.645 343.031C259.103 358.065 274.276 394.889 289.469 442.508C303.513 486.463 310.842 530.656 310.842 537.331C310.842 537.985 310.842 538.658 310.842 539.312C310.773 541.299 311.105 543.279 311.817 545.135C312.529 546.992 313.608 548.686 314.989 550.116C316.369 551.547 318.024 552.685 319.854 553.463C321.683 554.24 323.651 554.642 325.639 554.643H530.16C532.148 554.639 534.114 554.236 535.942 553.457C537.771 552.678 539.424 551.54 540.805 550.11C542.185 548.68 543.263 546.987 543.977 545.132C544.69 543.277 545.024 541.298 544.957 539.312C544.957 538.599 544.957 537.925 544.957 537.331C544.918 530.735 552.108 487.394 565.855 443.915Z" fill="#C31C36" stroke="#2E353A" stroke-width="2" stroke-linecap="round" stroke-linejoin="round"/>
<path d="M358.679 84.3137C364.411 81.7293 370.291 79.487 376.289 77.5986" stroke="#2E353A" stroke-width="2" stroke-linecap="round" stroke-linejoin="round"/>
<path d="M292.717 134.508C292.717 134.508 308.861 108.757 344.338 91.4248" stroke="#2E353A" stroke-width="2" stroke-linecap="round" stroke-linejoin="round"/>
<path d="M296.957 419.59C304.305 443.598 314.031 476.856 317.399 495.436C323.104 526.773 319.38 542.976 331.661 545.769" stroke="#2E353A" stroke-width="2" stroke-linecap="round" stroke-linejoin="round"/>
<path d="M287.963 390.947C287.963 390.947 289.944 397.385 293.133 407.25" stroke="#2E353A" stroke-width="2" stroke-linecap="round" stroke-linejoin="round"/>
<path d="M415.351 552.722V363.354C415.351 363.354 423.274 313.833 397.523 313.833C371.773 313.833 373.753 339.584 403.466 367.316C433.179 395.047 478.738 369.296 484.68 347.507C490.623 325.718 474.776 315.814 464.872 333.641C454.968 351.469 464.872 553.514 464.872 553.514" stroke="#2E353A" stroke-width="2" stroke-linecap="round" stroke-linejoin="round"/>
<path d="M535.33 553.494H321.578V603.094H535.33V553.494Z" fill="white" stroke="#2E353A" stroke-width="2" stroke-linecap="round" stroke-linejoin="round"/>
<path d="M535.33 614.9H321.578V664.501H535.33V614.9Z" fill="white" stroke="#2E353A" stroke-width="2" stroke-linecap="round" stroke-linejoin="round"/>
<path d="M535.33 603.095H321.578V614.9H535.33V603.095Z" fill="#2E353A" stroke="#2E353A" stroke-linecap="round" stroke-linejoin="round"/>
<path d="M535.33 676.307H321.578V725.907H535.33V676.307Z" fill="white" stroke="#2E353A" stroke-width="2" stroke-linecap="round" stroke-linejoin="round"/>
<path d="M512.966 596.459H528.853" stroke="#2E353A" stroke-linecap="round" stroke-linejoin="round"/>
<path d="M329.977 596.459H505.321" stroke="#2E353A" stroke-linecap="round" stroke-linejoin="round"/>
<path d="M471.765 658.835H522.97" stroke="#2E353A" stroke-linecap="round" stroke-linejoin="round"/>
<path d="M361.71 658.835H465.882" stroke="#2E353A" stroke-linecap="round" stroke-linejoin="round"/>
<path d="M344.655 658.835H353.469" stroke="#2E353A" stroke-linecap="round" stroke-linejoin="round"/>
<path d="M535.33 664.501H321.578V676.307H535.33V664.501Z" fill="#2E353A" stroke="#2E353A" stroke-linecap="round" stroke-linejoin="round"/>
<path d="M422.581 687.181H349.409V725.272H422.581V687.181Z" fill="#C31C36" stroke="#2E353A" stroke-linecap="round" stroke-linejoin="round"/>
<path d="M517.8 687.181H444.628V725.272H517.8V687.181Z" fill="#C31C36" stroke="#2E353A" stroke-linecap="round" stroke-linejoin="round"/>
<path d="M583.623 725.907C569.599 713.606 509.718 661.886 492.287 660.539C475.212 659.172 414.599 711.486 398.197 725.907H583.623Z" fill="#2E353A" stroke="#2E353A" stroke-linecap="round" stroke-linejoin="round"/>
<path d="M814.806 725.906H832" stroke="#2E353A" stroke-linecap="round" stroke-linejoin="round"/>
<path d="M27.7412 725.906H797.613" stroke="#2E353A" stroke-linecap="round" stroke-linejoin="round"/>
<path d="M1 725.906H14.3706" stroke="#2E353A" stroke-linecap="round" stroke-linejoin="round"/>
<path d="M780.201 612.86H728.798V684.963H750.092H780.201H801.515V648.912L780.201 612.86Z" fill="#2E353A" stroke="#2E353A" stroke-linecap="round" stroke-linejoin="round"/>
<path d="M801.515 684.963H777.963V701.344H801.515V684.963Z" fill="white" stroke="#2E353A" stroke-linecap="round" stroke-linejoin="round"/>
<path d="M690.588 684.15C690.588 684.15 716.339 670.284 707.425 600.955L674.741 583.128L618.288 574.214L567.776 576.195V604.917C567.776 604.917 596.498 629.677 599.47 637.601C601.333 643.023 602.336 648.705 602.441 654.438V682.169L690.588 684.15Z" fill="#C31C36" stroke="#2E353A" stroke-linecap="round" stroke-linejoin="round"/>
<path d="M707.425 600.955L690.588 684.15" stroke="#2E353A" stroke-linecap="round" stroke-linejoin="round"/>
<path d="M674.741 583.128L655.923 684.151" stroke="#2E353A" stroke-linecap="round" stroke-linejoin="round"/>
<path d="M618.288 574.214L604.422 649.486" stroke="#2E353A" stroke-linecap="round" stroke-linejoin="round"/>
<path d="M569.757 600.955C569.757 600.955 602.441 614.821 615.317 623.735C628.192 632.648 626.211 651.466 626.211 651.466" stroke="#2E353A" stroke-linecap="round" stroke-linejoin="round"/>
<path d="M729.254 685.478H575.68V698.353H729.254V685.478Z" fill="white" stroke="#2E353A" stroke-linecap="round" stroke-linejoin="round"/>
<path d="M759.917 652.458H791.987L774.773 622.745H759.917V652.458Z" fill="white" stroke="#2E353A" stroke-linecap="round" stroke-linejoin="round"/>
<path d="M754.965 622.745H741.099V652.458H754.965V622.745Z" fill="white" stroke="#2E353A" stroke-linecap="round" stroke-linejoin="round"/>
<path d="M669.988 684.963H576.492V707.287H669.988V684.963Z" fill="white" stroke="#2E353A" stroke-linecap="round" stroke-linejoin="round"/>
<path d="M758.558 725.545C769.249 723.614 776.349 713.382 774.418 702.692C772.487 692.002 762.255 684.901 751.565 686.832C740.875 688.764 733.774 698.995 735.705 709.686C737.636 720.376 747.868 727.476 758.558 725.545Z" fill="#2E353A" stroke="#2E353A" stroke-linecap="round" stroke-linejoin="round"/>
<path d="M755.025 717.726C761.359 717.726 766.494 712.591 766.494 706.257C766.494 699.923 761.359 694.788 755.025 694.788C748.691 694.788 743.556 699.923 743.556 706.257C743.556 712.591 748.691 717.726 755.025 717.726Z" fill="white" stroke="#2E353A" stroke-linecap="round" stroke-linejoin="round"/>
<path d="M606.96 725.586C617.657 723.692 624.793 713.486 622.899 702.789C621.005 692.092 610.798 684.955 600.101 686.849C589.404 688.743 582.268 698.95 584.162 709.647C586.056 720.344 596.263 727.48 606.96 725.586Z" fill="#2E353A" stroke="#2E353A" stroke-linecap="round" stroke-linejoin="round"/>
<path d="M603.491 717.726C609.825 717.726 614.96 712.591 614.96 706.257C614.96 699.923 609.825 694.788 603.491 694.788C597.156 694.788 592.021 699.923 592.021 706.257C592.021 712.591 597.156 717.726 603.491 717.726Z" fill="white" stroke="#2E353A" stroke-linecap="round" stroke-linejoin="round"/>
<path d="M664.285 720.661C672.287 713.313 672.817 700.87 665.469 692.869C658.122 684.867 645.679 684.337 637.678 691.684C629.676 699.032 629.146 711.475 636.493 719.476C643.841 727.478 656.284 728.008 664.285 720.661Z" fill="#2E353A" stroke="#2E353A" stroke-linecap="round" stroke-linejoin="round"/>
<path d="M650.971 717.726C657.306 717.726 662.441 712.591 662.441 706.257C662.441 699.923 657.306 694.788 650.971 694.788C644.637 694.788 639.502 699.923 639.502 706.257C639.502 712.591 644.637 717.726 650.971 717.726Z" fill="white" stroke="#2E353A" stroke-linecap="round" stroke-linejoin="round"/>
<path d="M644.534 650.477H595.013C591.457 650.477 588.575 653.359 588.575 656.914V677.713C588.575 681.268 591.457 684.151 595.013 684.151H644.534C648.089 684.151 650.972 681.268 650.972 677.713V656.914C650.972 653.359 648.089 650.477 644.534 650.477Z" fill="#2E353A" stroke="#2E353A" stroke-linecap="round" stroke-linejoin="round"/>
<path d="M563.814 684.151V586.198H583.623V684.151" stroke="#2E353A" stroke-linecap="round" stroke-linejoin="round"/>
<path d="M563.953 599.173H583.405" stroke="#2E353A" stroke-linecap="round" stroke-linejoin="round"/>
<path d="M563.953 614.465H583.405" stroke="#2E353A" stroke-linecap="round" stroke-linejoin="round"/>
<path d="M563.953 629.757H583.405" stroke="#2E353A" stroke-linecap="round" stroke-linejoin="round"/>
<path d="M563.953 645.068H583.405" stroke="#2E353A" stroke-linecap="round" stroke-linejoin="round"/>
<path d="M563.953 660.36H583.405" stroke="#2E353A" stroke-linecap="round" stroke-linejoin="round"/>
<path d="M563.953 675.652H583.405" stroke="#2E353A" stroke-linecap="round" stroke-linejoin="round"/>
<path d="M167.628 727.828H131.973V105.846L167.628 147.305V727.828Z" stroke="#2E353A" stroke-linecap="round" stroke-linejoin="round"/>
<path d="M132.329 597.093H167.291L132.329 563.28H167.291L132.329 597.093Z" stroke="#2E353A" stroke-linecap="round" stroke-linejoin="round"/>
<path d="M132.329 562.428H167.291L132.329 528.615H167.291L132.329 562.428Z" stroke="#2E353A" stroke-linecap="round" stroke-linejoin="round"/>
<path d="M132.329 527.764H167.291L132.329 493.951H167.291L132.329 527.764Z" stroke="#2E353A" stroke-linecap="round" stroke-linejoin="round"/>
<path d="M132.329 493.099H167.291L132.329 459.286H167.291L132.329 493.099Z" stroke="#2E353A" stroke-linecap="round" stroke-linejoin="round"/>
<path d="M132.329 458.434H167.291L132.329 424.621H167.291L132.329 458.434Z" stroke="#2E353A" stroke-linecap="round" stroke-linejoin="round"/>
<path d="M132.329 423.77H167.291L132.329 389.957H167.291L132.329 423.77Z" stroke="#2E353A" stroke-linecap="round" stroke-linejoin="round"/>
<path d="M132.329 389.105H167.291L132.329 355.292H167.291L132.329 389.105Z" stroke="#2E353A" stroke-linecap="round" stroke-linejoin="round"/>
<path d="M132.329 354.441H167.291L132.329 320.628H167.291L132.329 354.441Z" stroke="#2E353A" stroke-linecap="round" stroke-linejoin="round"/>
<path d="M132.329 319.776H167.291L132.329 285.963H167.291L132.329 319.776Z" stroke="#2E353A" stroke-linecap="round" stroke-linejoin="round"/>
<path d="M132.329 285.112H167.291L132.329 251.299H167.291L132.329 285.112Z" stroke="#2E353A" stroke-linecap="round" stroke-linejoin="round"/>
<path d="M132.329 250.447H167.291L132.329 216.634H167.291L132.329 250.447Z" stroke="#2E353A" stroke-linecap="round" stroke-linejoin="round"/>
<path d="M132.329 215.782H167.291L132.329 181.969H167.291L132.329 215.782Z" stroke="#2E353A" stroke-linecap="round" stroke-linejoin="round"/>
<path d="M132.329 181.118H167.291L132.329 147.305H167.291L132.329 181.118Z" stroke="#2E353A" stroke-linecap="round" stroke-linejoin="round"/>
<path d="M333.166 182.049L315.893 171.174H192.626L177.572 182.049H333.166Z" stroke="#2E353A" stroke-linecap="round" stroke-linejoin="round"/>
<path d="M336.019 181.117H34.9316V189.041H336.019V181.117Z" fill="#2E353A" stroke="#2E353A" stroke-linecap="round" stroke-linejoin="round"/>
<path d="M315.893 171.174L131.973 105.846L192.626 171.174" stroke="#2E353A" stroke-linecap="round" stroke-linejoin="round"/>
<path d="M131.993 105.846L34.9316 181.117" stroke="#2E353A" stroke-linecap="round" stroke-linejoin="round"/>
<path d="M193.398 197.954H119.117V245.494H193.398V197.954Z" fill="#2E353A" stroke="#2E353A" stroke-linecap="round" stroke-linejoin="round"/>
<path d="M177.908 207.858H134.587V221.724H177.908V207.858Z" fill="white" stroke="#2E353A" stroke-linecap="round" stroke-linejoin="round"/>
<path d="M336.019 189.041V274.455" stroke="#2E353A" stroke-linecap="round" stroke-linejoin="round"/>
<path d="M347.309 303.632H325.302V328.571H347.309V303.632Z" fill="#2E353A" stroke="#2E353A" stroke-linecap="round" stroke-linejoin="round"/>
<path d="M325.302 303.632L336.316 272.83L347.329 303.632" stroke="#2E353A" stroke-linecap="round" stroke-linejoin="round"/>
<path d="M276.653 604.58L324.193 679.733L336.078 671.037L301.096 601.074C299.524 597.929 297.107 595.284 294.115 593.437C291.124 591.589 287.676 590.612 284.16 590.615V590.615C282.546 590.645 280.969 591.104 279.591 591.945C278.213 592.786 277.084 593.979 276.32 595.401C275.555 596.822 275.183 598.422 275.242 600.036C275.3 601.649 275.787 603.217 276.653 604.58V604.58Z" fill="#C31C36" stroke="#2E353A" stroke-linecap="round" stroke-linejoin="round"/>
<path d="M331.898 661.252L282.992 696.035C282.992 696.035 287.35 714.497 315.596 713.407C343.843 712.318 342.773 682.982 342.773 682.982L331.898 661.252Z" fill="#2E353A" stroke="white" stroke-linecap="round" stroke-linejoin="round"/>
<path d="M196.053 638.433L284.636 598.519C287.557 597.205 290.841 596.93 293.94 597.741C297.039 598.552 299.767 600.399 301.671 602.976V602.976C302.783 604.481 303.582 606.193 304.021 608.012C304.461 609.831 304.531 611.72 304.228 613.566C303.925 615.413 303.256 617.18 302.258 618.763C301.261 620.346 299.957 621.714 298.422 622.784L201.5 690.628L196.053 638.433Z" fill="#C31C36" stroke="#2E353A" stroke-linecap="round" stroke-linejoin="round"/>
<path d="M183.019 687.34H91.7222V701.463H183.019V687.34Z" fill="white" stroke="#2E353A" stroke-linecap="round" stroke-linejoin="round"/>
<path d="M138.45 647.129H59.1177V679.733H138.45V647.129Z" fill="#2E353A" stroke="#2E353A" stroke-linecap="round" stroke-linejoin="round"/>
<path d="M128.13 610.166H195.478C197.054 610.166 198.566 610.792 199.68 611.907C200.795 613.021 201.421 614.533 201.421 616.109V679.693H122.167V616.109C122.167 615.327 122.322 614.552 122.622 613.83C122.922 613.108 123.361 612.452 123.915 611.9C124.469 611.347 125.126 610.91 125.85 610.613C126.573 610.315 127.348 610.163 128.13 610.166V610.166Z" fill="#C31C36" stroke="#2E353A" stroke-linecap="round" stroke-linejoin="round"/>
<path d="M58.3053 725.907H188.189C192.292 725.907 196.227 724.277 199.128 721.376C202.029 718.474 203.659 714.539 203.659 710.436C203.659 706.332 202.03 702.395 199.129 699.49C196.228 696.586 192.293 694.952 188.189 694.946H58.3053C54.2005 694.952 50.2656 696.586 47.3649 699.49C44.4642 702.395 42.835 706.332 42.835 710.436V710.436C42.835 714.539 44.4649 718.474 47.3661 721.376C50.2674 724.277 54.2023 725.907 58.3053 725.907Z" fill="#2E353A" stroke="#2E353A" stroke-linecap="round" stroke-linejoin="round"/>
<path d="M77.8764 725.907H207.74C211.845 725.907 215.782 724.277 218.686 721.377C221.59 718.476 223.225 714.541 223.23 710.436C223.23 706.328 221.598 702.388 218.693 699.483C215.788 696.578 211.848 694.946 207.74 694.946H77.8764C73.7681 694.946 69.8281 696.578 66.9232 699.483C64.0182 702.388 62.3862 706.328 62.3862 710.436C62.3915 714.541 64.0258 718.476 66.9302 721.377C69.8346 724.277 73.7716 725.907 77.8764 725.907Z" fill="white" stroke="#2E353A" stroke-linecap="round" stroke-linejoin="round"/>
<path d="M201.48 679.733H59.1177V690.608H201.48V679.733Z" fill="white" stroke="#2E353A" stroke-linecap="round" stroke-linejoin="round"/>
<path d="M88.4735 710.436C88.4735 712.371 87.8996 714.263 86.8244 715.872C85.7491 717.481 84.2209 718.736 82.4328 719.476C80.6448 720.217 78.6773 720.411 76.7791 720.033C74.881 719.655 73.1374 718.723 71.7689 717.355C70.4004 715.986 69.4684 714.243 69.0909 712.345C68.7133 710.447 68.9071 708.479 69.6477 706.691C70.3883 704.903 71.6425 703.375 73.2517 702.3C74.8609 701.224 76.7528 700.65 78.6882 700.65C81.2834 700.65 83.7723 701.681 85.6074 703.516C87.4425 705.352 88.4735 707.84 88.4735 710.436V710.436Z" fill="#2E353A" stroke="#2E353A" stroke-linecap="round" stroke-linejoin="round"/>
<path d="M104.776 720.221C110.18 720.221 114.561 715.84 114.561 710.436C114.561 705.031 110.18 700.65 104.776 700.65C99.3718 700.65 94.9907 705.031 94.9907 710.436C94.9907 715.84 99.3718 720.221 104.776 720.221Z" fill="#2E353A" stroke="#2E353A" stroke-linecap="round" stroke-linejoin="round"/>
<path d="M130.843 720.221C136.248 720.221 140.629 715.84 140.629 710.436C140.629 705.031 136.248 700.65 130.843 700.65C125.439 700.65 121.058 705.031 121.058 710.436C121.058 715.84 125.439 720.221 130.843 720.221Z" fill="#2E353A" stroke="#2E353A" stroke-linecap="round" stroke-linejoin="round"/>
<path d="M166.717 710.436C166.717 712.371 166.143 714.263 165.068 715.872C163.992 717.481 162.464 718.736 160.676 719.476C158.888 720.217 156.92 720.411 155.022 720.033C153.124 719.655 151.381 718.723 150.012 717.355C148.644 715.986 147.712 714.243 147.334 712.345C146.956 710.447 147.15 708.479 147.891 706.691C148.631 704.903 149.886 703.375 151.495 702.3C153.104 701.224 154.996 700.65 156.931 700.65C159.527 700.65 162.015 701.681 163.851 703.516C165.686 705.352 166.717 707.84 166.717 710.436V710.436Z" fill="#2E353A" stroke="#2E353A" stroke-linecap="round" stroke-linejoin="round"/>
<path d="M192.804 710.436C192.804 712.371 192.23 714.263 191.155 715.872C190.08 717.481 188.551 718.736 186.763 719.476C184.975 720.217 183.008 720.411 181.11 720.033C179.212 719.655 177.468 718.723 176.099 717.355C174.731 715.986 173.799 714.243 173.421 712.345C173.044 710.447 173.238 708.479 173.978 706.691C174.719 704.903 175.973 703.375 177.582 702.3C179.191 701.224 181.083 700.65 183.019 700.65C185.614 700.65 188.103 701.681 189.938 703.516C191.773 705.352 192.804 707.84 192.804 710.436V710.436Z" fill="#2E353A" stroke="#2E353A" stroke-linecap="round" stroke-linejoin="round"/>
<path d="M218.872 710.436C218.872 712.372 218.298 714.265 217.221 715.874C216.145 717.484 214.616 718.738 212.827 719.478C211.038 720.218 209.069 720.411 207.17 720.032C205.272 719.652 203.528 718.718 202.16 717.348C200.793 715.978 199.862 714.232 199.487 712.333C199.112 710.433 199.308 708.465 200.052 706.677C200.795 704.89 202.053 703.363 203.665 702.29C205.276 701.217 207.17 700.646 209.106 700.65C210.39 700.65 211.662 700.904 212.848 701.396C214.034 701.888 215.112 702.609 216.019 703.518C216.926 704.427 217.645 705.505 218.134 706.693C218.624 707.88 218.875 709.152 218.872 710.436V710.436Z" fill="#2E353A" stroke="#2E353A" stroke-linecap="round" stroke-linejoin="round"/>
<path d="M294.956 610.166C294.956 609.088 294.636 608.034 294.037 607.138C293.437 606.241 292.585 605.543 291.589 605.131C290.592 604.72 289.496 604.613 288.439 604.825C287.382 605.037 286.411 605.557 285.65 606.321C284.889 607.085 284.372 608.058 284.164 609.116C283.956 610.173 284.067 611.269 284.482 612.264C284.897 613.259 285.598 614.109 286.497 614.705C287.395 615.301 288.45 615.617 289.529 615.613C290.243 615.613 290.95 615.472 291.61 615.198C292.27 614.924 292.869 614.523 293.373 614.017C293.878 613.511 294.277 612.91 294.549 612.249C294.82 611.588 294.959 610.88 294.956 610.166Z" fill="#2E353A" stroke="#2E353A" stroke-linecap="round" stroke-linejoin="round"/>
<path d="M189.536 618.862H131.933V653.646H189.536V618.862Z" fill="white" stroke="#2E353A" stroke-linecap="round" stroke-linejoin="round"/>
<path d="M189.536 618.862H158.021V653.646H189.536V618.862Z" fill="white" stroke="#2E353A" stroke-linecap="round" stroke-linejoin="round"/>
</svg>
