<svg width="1790" height="442" viewBox="0 0 1790 442" fill="none" xmlns="http://www.w3.org/2000/svg">
<g opacity="0.5">
<path d="M1584 335.613C1584 336.328 1584.21 337.027 1584.61 337.621C1585 338.215 1585.56 338.678 1586.22 338.952C1586.88 339.225 1587.6 339.297 1588.3 339.157C1589 339.018 1589.64 338.674 1590.14 338.168C1590.64 337.663 1590.99 337.019 1591.13 336.318C1591.26 335.617 1591.19 334.891 1590.92 334.231C1590.65 333.57 1590.19 333.006 1589.6 332.609C1589 332.212 1588.31 332 1587.6 332C1587.13 332 1586.66 332.093 1586.22 332.275C1585.78 332.457 1585.39 332.723 1585.05 333.058C1584.72 333.394 1584.45 333.792 1584.27 334.231C1584.09 334.669 1584 335.139 1584 335.613Z" fill="white"/>
<path d="M1623.67 335.613C1623.67 336.328 1623.88 337.027 1624.28 337.621C1624.67 338.215 1625.23 338.678 1625.89 338.952C1626.55 339.225 1627.27 339.297 1627.97 339.157C1628.67 339.018 1629.31 338.674 1629.81 338.168C1630.32 337.663 1630.66 337.019 1630.8 336.318C1630.94 335.617 1630.86 334.891 1630.59 334.231C1630.32 333.57 1629.86 333.006 1629.27 332.609C1628.68 332.212 1627.98 332 1627.27 332C1626.8 332 1626.33 332.093 1625.89 332.275C1625.46 332.457 1625.06 332.723 1624.73 333.058C1624.39 333.394 1624.13 333.792 1623.95 334.231C1623.76 334.669 1623.67 335.139 1623.67 335.613Z" fill="white"/>
<path d="M1663.34 335.613C1663.34 336.328 1663.55 337.027 1663.95 337.621C1664.34 338.215 1664.91 338.678 1665.56 338.952C1666.22 339.225 1666.94 339.297 1667.64 339.157C1668.34 339.018 1668.98 338.674 1669.48 338.168C1669.99 337.663 1670.33 337.019 1670.47 336.318C1670.61 335.617 1670.54 334.891 1670.26 334.231C1669.99 333.57 1669.53 333.006 1668.94 332.609C1668.35 332.212 1667.65 332 1666.94 332C1666.47 332 1666 332.093 1665.56 332.275C1665.13 332.457 1664.73 332.723 1664.4 333.058C1664.06 333.394 1663.8 333.792 1663.62 334.231C1663.44 334.669 1663.34 335.139 1663.34 335.613Z" fill="white"/>
<path d="M1703.01 335.613C1703.01 336.328 1703.23 337.027 1703.62 337.621C1704.02 338.215 1704.58 338.678 1705.24 338.952C1705.89 339.225 1706.62 339.297 1707.31 339.157C1708.01 339.018 1708.65 338.674 1709.16 338.168C1709.66 337.663 1710 337.019 1710.14 336.318C1710.28 335.617 1710.21 334.891 1709.94 334.231C1709.66 333.57 1709.2 333.006 1708.61 332.609C1708.02 332.212 1707.32 332 1706.61 332C1706.14 332 1705.67 332.093 1705.24 332.275C1704.8 332.457 1704.4 332.723 1704.07 333.058C1703.73 333.394 1703.47 333.792 1703.29 334.231C1703.11 334.669 1703.01 335.139 1703.01 335.613Z" fill="white"/>
<path d="M1742.69 335.613C1742.69 336.328 1742.9 337.027 1743.29 337.621C1743.69 338.215 1744.25 338.678 1744.91 338.952C1745.56 339.225 1746.29 339.297 1746.99 339.157C1747.68 339.018 1748.32 338.674 1748.83 338.168C1749.33 337.663 1749.67 337.019 1749.81 336.318C1749.95 335.617 1749.88 334.891 1749.61 334.231C1749.34 333.57 1748.87 333.006 1748.28 332.609C1747.69 332.212 1747 332 1746.28 332C1745.81 332 1745.34 332.093 1744.91 332.275C1744.47 332.457 1744.07 332.723 1743.74 333.058C1743.41 333.394 1743.14 333.792 1742.96 334.231C1742.78 334.669 1742.69 335.139 1742.69 335.613Z" fill="white"/>
<path d="M1782.36 335.613C1782.36 336.328 1782.57 337.027 1782.96 337.621C1783.36 338.215 1783.92 338.678 1784.58 338.952C1785.24 339.225 1785.96 339.297 1786.66 339.157C1787.36 339.018 1788 338.674 1788.5 338.168C1789 337.663 1789.34 337.019 1789.48 336.318C1789.62 335.617 1789.55 334.891 1789.28 334.231C1789.01 333.57 1788.55 333.006 1787.95 332.609C1787.36 332.212 1786.67 332 1785.96 332C1785.48 332 1785.02 332.093 1784.58 332.275C1784.14 332.457 1783.75 332.723 1783.41 333.058C1783.08 333.394 1782.81 333.792 1782.63 334.231C1782.45 334.669 1782.36 335.139 1782.36 335.613Z" fill="white"/>
<path d="M1584 369.57C1584 370.285 1584.21 370.984 1584.61 371.578C1585 372.172 1585.56 372.635 1586.22 372.909C1586.88 373.182 1587.6 373.254 1588.3 373.114C1589 372.975 1589.64 372.631 1590.14 372.125C1590.64 371.62 1590.99 370.976 1591.13 370.275C1591.26 369.574 1591.19 368.848 1590.92 368.188C1590.65 367.527 1590.19 366.963 1589.6 366.566C1589 366.169 1588.31 365.957 1587.6 365.957C1586.64 365.957 1585.73 366.338 1585.05 367.015C1584.38 367.693 1584 368.612 1584 369.57Z" fill="white"/>
<path d="M1623.67 369.57C1623.67 370.285 1623.88 370.984 1624.28 371.578C1624.67 372.172 1625.23 372.635 1625.89 372.909C1626.55 373.182 1627.27 373.254 1627.97 373.114C1628.67 372.975 1629.31 372.631 1629.81 372.125C1630.32 371.62 1630.66 370.976 1630.8 370.275C1630.94 369.574 1630.86 368.848 1630.59 368.188C1630.32 367.527 1629.86 366.963 1629.27 366.566C1628.68 366.169 1627.98 365.957 1627.27 365.957C1626.31 365.957 1625.4 366.338 1624.73 367.015C1624.05 367.693 1623.67 368.612 1623.67 369.57Z" fill="white"/>
<path d="M1663.34 369.57C1663.34 370.285 1663.55 370.984 1663.95 371.578C1664.34 372.172 1664.91 372.635 1665.56 372.909C1666.22 373.182 1666.94 373.254 1667.64 373.114C1668.34 372.975 1668.98 372.631 1669.48 372.125C1669.99 371.62 1670.33 370.976 1670.47 370.275C1670.61 369.574 1670.54 368.848 1670.26 368.188C1669.99 367.527 1669.53 366.963 1668.94 366.566C1668.35 366.169 1667.65 365.957 1666.94 365.957C1665.99 365.957 1665.07 366.338 1664.4 367.015C1663.72 367.693 1663.34 368.612 1663.34 369.57Z" fill="white"/>
<path d="M1703.01 369.57C1703.01 370.285 1703.23 370.984 1703.62 371.578C1704.02 372.172 1704.58 372.635 1705.24 372.909C1705.89 373.182 1706.62 373.254 1707.31 373.114C1708.01 372.975 1708.65 372.631 1709.16 372.125C1709.66 371.62 1710 370.976 1710.14 370.275C1710.28 369.574 1710.21 368.848 1709.94 368.188C1709.66 367.527 1709.2 366.963 1708.61 366.566C1708.02 366.169 1707.32 365.957 1706.61 365.957C1705.66 365.957 1704.74 366.338 1704.07 367.015C1703.39 367.693 1703.01 368.612 1703.01 369.57Z" fill="white"/>
<path d="M1742.69 369.57C1742.69 370.285 1742.9 370.984 1743.29 371.578C1743.69 372.172 1744.25 372.635 1744.91 372.909C1745.56 373.182 1746.29 373.254 1746.99 373.114C1747.68 372.975 1748.32 372.631 1748.83 372.125C1749.33 371.62 1749.67 370.976 1749.81 370.275C1749.95 369.574 1749.88 368.848 1749.61 368.188C1749.34 367.527 1748.87 366.963 1748.28 366.566C1747.69 366.169 1747 365.957 1746.28 365.957C1745.33 365.957 1744.41 366.338 1743.74 367.015C1743.07 367.693 1742.69 368.612 1742.69 369.57Z" fill="white"/>
<path d="M1782.36 369.57C1782.36 370.285 1782.57 370.984 1782.96 371.578C1783.36 372.172 1783.92 372.635 1784.58 372.909C1785.24 373.182 1785.96 373.254 1786.66 373.114C1787.36 372.975 1788 372.631 1788.5 372.125C1789 371.62 1789.34 370.976 1789.48 370.275C1789.62 369.574 1789.55 368.848 1789.28 368.188C1789.01 367.527 1788.55 366.963 1787.95 366.566C1787.36 366.169 1786.67 365.957 1785.96 365.957C1785 365.957 1784.09 366.338 1783.41 367.015C1782.74 367.693 1782.36 368.612 1782.36 369.57Z" fill="white"/>
<path d="M1584 403.507C1584 404.221 1584.21 404.92 1584.61 405.514C1585 406.108 1585.56 406.572 1586.22 406.845C1586.88 407.119 1587.6 407.19 1588.3 407.051C1589 406.911 1589.64 406.567 1590.14 406.062C1590.64 405.556 1590.99 404.913 1591.13 404.212C1591.26 403.511 1591.19 402.784 1590.92 402.124C1590.65 401.464 1590.19 400.9 1589.6 400.502C1589 400.105 1588.31 399.894 1587.6 399.894C1586.65 399.899 1585.73 400.281 1585.06 400.958C1584.39 401.634 1584.01 402.55 1584 403.507Z" fill="white"/>
<path d="M1623.67 403.507C1623.67 404.221 1623.88 404.92 1624.28 405.514C1624.67 406.108 1625.23 406.572 1625.89 406.845C1626.55 407.119 1627.27 407.19 1627.97 407.051C1628.67 406.911 1629.31 406.567 1629.81 406.062C1630.32 405.556 1630.66 404.913 1630.8 404.212C1630.94 403.511 1630.86 402.784 1630.59 402.124C1630.32 401.464 1629.86 400.9 1629.27 400.502C1628.68 400.105 1627.98 399.894 1627.27 399.894C1626.32 399.899 1625.4 400.281 1624.73 400.958C1624.06 401.634 1623.68 402.55 1623.67 403.507Z" fill="white"/>
<path d="M1663.34 403.507C1663.34 404.221 1663.55 404.92 1663.95 405.514C1664.34 406.108 1664.91 406.572 1665.56 406.845C1666.22 407.119 1666.94 407.19 1667.64 407.051C1668.34 406.911 1668.98 406.567 1669.48 406.062C1669.99 405.556 1670.33 404.913 1670.47 404.212C1670.61 403.511 1670.54 402.784 1670.26 402.124C1669.99 401.464 1669.53 400.9 1668.94 400.502C1668.35 400.105 1667.65 399.894 1666.94 399.894C1665.99 399.899 1665.08 400.281 1664.4 400.958C1663.73 401.634 1663.35 402.55 1663.34 403.507Z" fill="white"/>
<path d="M1703.01 403.507C1703.01 404.221 1703.23 404.92 1703.62 405.514C1704.02 406.108 1704.58 406.572 1705.24 406.845C1705.89 407.119 1706.62 407.19 1707.31 407.051C1708.01 406.911 1708.65 406.567 1709.16 406.062C1709.66 405.556 1710 404.913 1710.14 404.212C1710.28 403.511 1710.21 402.784 1709.94 402.124C1709.66 401.464 1709.2 400.9 1708.61 400.502C1708.02 400.105 1707.32 399.894 1706.61 399.894C1705.66 399.899 1704.75 400.281 1704.07 400.958C1703.4 401.634 1703.02 402.55 1703.01 403.507Z" fill="white"/>
<path d="M1742.69 403.507C1742.69 404.221 1742.9 404.92 1743.29 405.514C1743.69 406.108 1744.25 406.572 1744.91 406.845C1745.56 407.119 1746.29 407.19 1746.99 407.051C1747.68 406.911 1748.32 406.567 1748.83 406.062C1749.33 405.556 1749.67 404.913 1749.81 404.212C1749.95 403.511 1749.88 402.784 1749.61 402.124C1749.34 401.464 1748.87 400.9 1748.28 400.502C1747.69 400.105 1747 399.894 1746.28 399.894C1745.33 399.899 1744.42 400.281 1743.75 400.958C1743.07 401.634 1742.69 402.55 1742.69 403.507Z" fill="white"/>
<path d="M1782.36 403.507C1782.36 404.221 1782.57 404.92 1782.96 405.514C1783.36 406.108 1783.92 406.572 1784.58 406.845C1785.24 407.119 1785.96 407.19 1786.66 407.051C1787.36 406.911 1788 406.567 1788.5 406.062C1789 405.556 1789.34 404.913 1789.48 404.212C1789.62 403.511 1789.55 402.784 1789.28 402.124C1789.01 401.464 1788.55 400.9 1787.95 400.502C1787.36 400.105 1786.67 399.894 1785.96 399.894C1785 399.899 1784.09 400.281 1783.42 400.958C1782.74 401.634 1782.36 402.55 1782.36 403.507Z" fill="white"/>
<path d="M1584 437.464C1584 438.178 1584.21 438.877 1584.61 439.471C1585 440.065 1585.56 440.529 1586.22 440.802C1586.88 441.076 1587.6 441.147 1588.3 441.008C1589 440.868 1589.64 440.524 1590.14 440.019C1590.64 439.514 1590.99 438.87 1591.13 438.169C1591.26 437.468 1591.19 436.741 1590.92 436.081C1590.65 435.421 1590.19 434.857 1589.6 434.46C1589 434.062 1588.31 433.851 1587.6 433.851C1586.64 433.851 1585.73 434.231 1585.05 434.909C1584.38 435.587 1584 436.506 1584 437.464Z" fill="white"/>
<path d="M1623.67 437.464C1623.67 438.178 1623.88 438.877 1624.28 439.471C1624.67 440.065 1625.23 440.529 1625.89 440.802C1626.55 441.076 1627.27 441.147 1627.97 441.008C1628.67 440.868 1629.31 440.524 1629.81 440.019C1630.32 439.514 1630.66 438.87 1630.8 438.169C1630.94 437.468 1630.86 436.741 1630.59 436.081C1630.32 435.421 1629.86 434.857 1629.27 434.46C1628.68 434.062 1627.98 433.851 1627.27 433.851C1626.31 433.851 1625.4 434.231 1624.73 434.909C1624.05 435.587 1623.67 436.506 1623.67 437.464Z" fill="white"/>
<path d="M1663.34 437.464C1663.34 438.178 1663.55 438.877 1663.95 439.471C1664.34 440.065 1664.91 440.529 1665.56 440.802C1666.22 441.076 1666.94 441.147 1667.64 441.008C1668.34 440.868 1668.98 440.524 1669.48 440.019C1669.99 439.514 1670.33 438.87 1670.47 438.169C1670.61 437.468 1670.54 436.741 1670.26 436.081C1669.99 435.421 1669.53 434.857 1668.94 434.46C1668.35 434.062 1667.65 433.851 1666.94 433.851C1665.99 433.851 1665.07 434.231 1664.4 434.909C1663.72 435.587 1663.34 436.506 1663.34 437.464Z" fill="white"/>
<path d="M1703.01 437.464C1703.01 438.178 1703.23 438.877 1703.62 439.471C1704.02 440.065 1704.58 440.529 1705.24 440.802C1705.89 441.076 1706.62 441.147 1707.31 441.008C1708.01 440.868 1708.65 440.524 1709.16 440.019C1709.66 439.514 1710 438.87 1710.14 438.169C1710.28 437.468 1710.21 436.741 1709.94 436.081C1709.66 435.421 1709.2 434.857 1708.61 434.46C1708.02 434.062 1707.32 433.851 1706.61 433.851C1705.66 433.851 1704.74 434.231 1704.07 434.909C1703.39 435.587 1703.01 436.506 1703.01 437.464Z" fill="white"/>
<path d="M1742.69 437.464C1742.69 438.178 1742.9 438.877 1743.29 439.471C1743.69 440.065 1744.25 440.529 1744.91 440.802C1745.56 441.076 1746.29 441.147 1746.99 441.008C1747.68 440.868 1748.32 440.524 1748.83 440.019C1749.33 439.514 1749.67 438.87 1749.81 438.169C1749.95 437.468 1749.88 436.741 1749.61 436.081C1749.34 435.421 1748.87 434.857 1748.28 434.46C1747.69 434.062 1747 433.851 1746.28 433.851C1745.33 433.851 1744.41 434.231 1743.74 434.909C1743.07 435.587 1742.69 436.506 1742.69 437.464Z" fill="white"/>
<path d="M1782.36 437.464C1782.36 438.178 1782.57 438.877 1782.96 439.471C1783.36 440.065 1783.92 440.529 1784.58 440.802C1785.24 441.076 1785.96 441.147 1786.66 441.008C1787.36 440.868 1788 440.524 1788.5 440.019C1789 439.514 1789.34 438.87 1789.48 438.169C1789.62 437.468 1789.55 436.741 1789.28 436.081C1789.01 435.421 1788.55 434.857 1787.95 434.46C1787.36 434.062 1786.67 433.851 1785.96 433.851C1785 433.851 1784.09 434.231 1783.41 434.909C1782.74 435.587 1782.36 436.506 1782.36 437.464Z" fill="white"/>
</g>
<g opacity="0.5">
<path d="M0 4.58795C0 5.49536 0.267937 6.38239 0.769863 7.13687C1.27179 7.89135 1.98519 8.47939 2.81986 8.82664C3.65454 9.1739 4.57296 9.26476 5.45905 9.08773C6.34513 8.9107 7.15907 8.47374 7.7979 7.83211C8.43673 7.19047 8.87179 6.37298 9.04804 5.48301C9.22429 4.59303 9.1338 3.67055 8.78807 2.83222C8.44234 1.99388 7.85686 1.27733 7.10567 0.773204C6.35449 0.269074 5.47136 0 4.56792 0C3.96806 0 3.37407 0.118674 2.81986 0.349239C2.26566 0.579805 1.76207 0.917746 1.3379 1.34378C0.913734 1.76981 0.57729 2.27558 0.347732 2.83222C0.118174 3.38885 0 3.98545 0 4.58795Z" fill="white"/>
<path d="M50.3726 4.58795C50.3726 5.49536 50.6405 6.38239 51.1424 7.13687C51.6443 7.89135 52.3577 8.47939 53.1924 8.82664C54.0271 9.1739 54.9455 9.26476 55.8316 9.08773C56.7177 8.9107 57.5316 8.47374 58.1704 7.83211C58.8093 7.19047 59.2443 6.37298 59.4206 5.48301C59.5968 4.59303 59.5064 3.67055 59.1606 2.83222C58.8149 1.99388 58.2294 1.27733 57.4782 0.773204C56.727 0.269074 55.8439 0 54.9404 0C54.3406 0 53.7466 0.118674 53.1924 0.349239C52.6382 0.579805 52.1346 0.917746 51.7105 1.34378C51.2863 1.76981 50.9498 2.27558 50.7203 2.83222C50.4907 3.38885 50.3726 3.98545 50.3726 4.58795Z" fill="white"/>
<path d="M100.746 4.58795C100.746 5.49536 101.014 6.38239 101.515 7.13687C102.017 7.89135 102.731 8.47939 103.565 8.82664C104.4 9.1739 105.319 9.26476 106.205 9.08773C107.091 8.9107 107.905 8.47374 108.543 7.83211C109.182 7.19047 109.617 6.37298 109.794 5.48301C109.97 4.59303 109.879 3.67055 109.534 2.83222C109.188 1.99388 108.602 1.27733 107.851 0.773204C107.1 0.269074 106.217 0 105.313 0C104.714 0 104.12 0.118674 103.565 0.349239C103.011 0.579805 102.508 0.917746 102.084 1.34378C101.659 1.76981 101.323 2.27558 101.093 2.83222C100.864 3.38885 100.746 3.98545 100.746 4.58795Z" fill="white"/>
<path d="M151.118 4.58795C151.118 5.49536 151.386 6.38239 151.888 7.13687C152.39 7.89135 153.103 8.47939 153.938 8.82664C154.773 9.1739 155.691 9.26476 156.577 9.08773C157.463 8.9107 158.277 8.47374 158.916 7.83211C159.555 7.19047 159.99 6.37298 160.166 5.48301C160.342 4.59303 160.252 3.67055 159.906 2.83222C159.56 1.99388 158.975 1.27733 158.224 0.773204C157.473 0.269074 156.589 0 155.686 0C155.086 0 154.492 0.118674 153.938 0.349239C153.384 0.579805 152.88 0.917746 152.456 1.34378C152.032 1.76981 151.695 2.27558 151.466 2.83222C151.236 3.38885 151.118 3.98545 151.118 4.58795Z" fill="white"/>
<path d="M201.491 4.58795C201.491 5.49536 201.759 6.38239 202.261 7.13687C202.763 7.89135 203.476 8.47939 204.311 8.82664C205.146 9.1739 206.064 9.26476 206.95 9.08773C207.836 8.9107 208.65 8.47374 209.289 7.83211C209.928 7.19047 210.363 6.37298 210.539 5.48301C210.715 4.59303 210.625 3.67055 210.279 2.83222C209.934 1.99388 209.348 1.27733 208.597 0.773204C207.846 0.269074 206.963 0 206.059 0C205.459 0 204.865 0.118674 204.311 0.349239C203.757 0.579805 203.253 0.917746 202.829 1.34378C202.405 1.76981 202.069 2.27558 201.839 2.83222C201.609 3.38885 201.491 3.98545 201.491 4.58795Z" fill="white"/>
<path d="M251.864 4.58795C251.864 5.49536 252.132 6.38239 252.634 7.13687C253.136 7.89135 253.849 8.47939 254.684 8.82664C255.519 9.1739 256.437 9.26476 257.323 9.08773C258.209 8.9107 259.023 8.47374 259.662 7.83211C260.301 7.19047 260.736 6.37298 260.912 5.48301C261.089 4.59303 260.998 3.67055 260.652 2.83222C260.307 1.99388 259.721 1.27733 258.97 0.773204C258.219 0.269074 257.336 0 256.432 0C255.832 0 255.238 0.118674 254.684 0.349239C254.13 0.579805 253.626 0.917746 253.202 1.34378C252.778 1.76981 252.442 2.27558 252.212 2.83222C251.982 3.38885 251.864 3.98545 251.864 4.58795Z" fill="white"/>
<path d="M0 47.7051C0 48.6125 0.267937 49.4996 0.769863 50.2541C1.27179 51.0085 1.98519 51.5966 2.81986 51.9438C3.65454 52.2911 4.57296 52.3819 5.45905 52.2049C6.34513 52.0279 7.15907 51.5909 7.7979 50.9493C8.43673 50.3077 8.87179 49.4902 9.04804 48.6002C9.22429 47.7102 9.1338 46.7878 8.78807 45.9494C8.44234 45.1111 7.85686 44.3945 7.10567 43.8904C6.35449 43.3863 5.47136 43.1172 4.56792 43.1172C3.35644 43.1172 2.19455 43.6006 1.3379 44.461C0.481257 45.3214 0 46.4883 0 47.7051Z" fill="white"/>
<path d="M50.3726 47.7051C50.3726 48.6125 50.6405 49.4996 51.1424 50.2541C51.6443 51.0085 52.3577 51.5966 53.1924 51.9438C54.0271 52.2911 54.9455 52.3819 55.8316 52.2049C56.7177 52.0279 57.5316 51.5909 58.1704 50.9493C58.8093 50.3077 59.2443 49.4902 59.4206 48.6002C59.5968 47.7102 59.5064 46.7878 59.1606 45.9494C58.8149 45.1111 58.2294 44.3945 57.4782 43.8904C56.727 43.3863 55.8439 43.1172 54.9404 43.1172C53.729 43.1172 52.5671 43.6006 51.7105 44.461C50.8538 45.3214 50.3726 46.4883 50.3726 47.7051Z" fill="white"/>
<path d="M100.746 47.7051C100.746 48.6125 101.014 49.4996 101.515 50.2541C102.017 51.0085 102.731 51.5966 103.565 51.9438C104.4 52.2911 105.319 52.3819 106.205 52.2049C107.091 52.0279 107.905 51.5909 108.543 50.9493C109.182 50.3077 109.617 49.4902 109.794 48.6002C109.97 47.7102 109.879 46.7878 109.534 45.9494C109.188 45.1111 108.602 44.3945 107.851 43.8904C107.1 43.3863 106.217 43.1172 105.313 43.1172C104.102 43.1172 102.94 43.6006 102.084 44.461C101.227 45.3214 100.746 46.4883 100.746 47.7051Z" fill="white"/>
<path d="M151.118 47.7051C151.118 48.6125 151.386 49.4996 151.888 50.2541C152.39 51.0085 153.103 51.5966 153.938 51.9438C154.773 52.2911 155.691 52.3819 156.577 52.2049C157.463 52.0279 158.277 51.5909 158.916 50.9493C159.555 50.3077 159.99 49.4902 160.166 48.6002C160.342 47.7102 160.252 46.7878 159.906 45.9494C159.56 45.1111 158.975 44.3945 158.224 43.8904C157.473 43.3863 156.589 43.1172 155.686 43.1172C154.475 43.1172 153.313 43.6006 152.456 44.461C151.599 45.3214 151.118 46.4883 151.118 47.7051Z" fill="white"/>
<path d="M201.491 47.7051C201.491 48.6125 201.759 49.4996 202.261 50.2541C202.763 51.0085 203.476 51.5966 204.311 51.9438C205.146 52.2911 206.064 52.3819 206.95 52.2049C207.836 52.0279 208.65 51.5909 209.289 50.9493C209.928 50.3077 210.363 49.4902 210.539 48.6002C210.715 47.7102 210.625 46.7878 210.279 45.9494C209.934 45.1111 209.348 44.3945 208.597 43.8904C207.846 43.3863 206.963 43.1172 206.059 43.1172C204.848 43.1172 203.686 43.6006 202.829 44.461C201.972 45.3214 201.491 46.4883 201.491 47.7051Z" fill="white"/>
<path d="M251.864 47.7051C251.864 48.6125 252.132 49.4996 252.634 50.2541C253.136 51.0085 253.849 51.5966 254.684 51.9438C255.519 52.2911 256.437 52.3819 257.323 52.2049C258.209 52.0279 259.023 51.5909 259.662 50.9493C260.301 50.3077 260.736 49.4902 260.912 48.6002C261.089 47.7102 260.998 46.7878 260.652 45.9494C260.307 45.1111 259.721 44.3945 258.97 43.8904C258.219 43.3863 257.336 43.1172 256.432 43.1172C255.221 43.1172 254.059 43.6006 253.202 44.461C252.346 45.3214 251.864 46.4883 251.864 47.7051Z" fill="white"/>
<path d="M0 90.795C0 91.7024 0.267937 92.5894 0.769863 93.3439C1.27179 94.0984 1.98519 94.6864 2.81986 95.0337C3.65454 95.3809 4.57296 95.4718 5.45905 95.2948C6.34513 95.1177 7.15907 94.6808 7.7979 94.0392C8.43673 93.3975 8.87179 92.58 9.04804 91.69C9.22429 90.8001 9.1338 89.8776 8.78807 89.0393C8.44234 88.2009 7.85686 87.4844 7.10567 86.9802C6.35449 86.4761 5.47136 86.207 4.56792 86.207C3.35848 86.2137 2.20047 86.6992 1.34526 87.5582C0.490044 88.4171 0.00662719 89.5802 0 90.795Z" fill="white"/>
<path d="M50.3726 90.795C50.3726 91.7024 50.6405 92.5894 51.1424 93.3439C51.6443 94.0984 52.3577 94.6864 53.1924 95.0337C54.0271 95.3809 54.9455 95.4718 55.8316 95.2948C56.7177 95.1177 57.5316 94.6808 58.1704 94.0392C58.8093 93.3975 59.2443 92.58 59.4206 91.69C59.5968 90.8001 59.5064 89.8776 59.1606 89.0393C58.8149 88.2009 58.2294 87.4844 57.4782 86.9802C56.727 86.4761 55.8439 86.207 54.9404 86.207C53.731 86.2137 52.573 86.6992 51.7178 87.5582C50.8626 88.4171 50.3792 89.5802 50.3726 90.795Z" fill="white"/>
<path d="M100.746 90.795C100.746 91.7024 101.014 92.5894 101.515 93.3439C102.017 94.0984 102.731 94.6864 103.565 95.0337C104.4 95.3809 105.319 95.4718 106.205 95.2948C107.091 95.1177 107.905 94.6808 108.543 94.0392C109.182 93.3975 109.617 92.58 109.794 91.69C109.97 90.8001 109.879 89.8776 109.534 89.0393C109.188 88.2009 108.602 87.4844 107.851 86.9802C107.1 86.4761 106.217 86.207 105.313 86.207C104.104 86.2137 102.946 86.6992 102.091 87.5582C101.236 88.4171 100.752 89.5802 100.746 90.795Z" fill="white"/>
<path d="M151.118 90.795C151.118 91.7024 151.386 92.5894 151.888 93.3439C152.39 94.0984 153.103 94.6864 153.938 95.0337C154.773 95.3809 155.691 95.4718 156.577 95.2948C157.463 95.1177 158.277 94.6808 158.916 94.0392C159.555 93.3975 159.99 92.58 160.166 91.69C160.342 90.8001 160.252 89.8776 159.906 89.0393C159.56 88.2009 158.975 87.4844 158.224 86.9802C157.473 86.4761 156.589 86.207 155.686 86.207C154.477 86.2137 153.319 86.6992 152.463 87.5582C151.608 88.4171 151.125 89.5802 151.118 90.795Z" fill="white"/>
<path d="M201.491 90.795C201.491 91.7024 201.759 92.5894 202.261 93.3439C202.763 94.0984 203.476 94.6864 204.311 95.0337C205.146 95.3809 206.064 95.4718 206.95 95.2948C207.836 95.1177 208.65 94.6808 209.289 94.0392C209.928 93.3975 210.363 92.58 210.539 91.69C210.715 90.8001 210.625 89.8776 210.279 89.0393C209.934 88.2009 209.348 87.4844 208.597 86.9802C207.846 86.4761 206.963 86.207 206.059 86.207C204.85 86.2137 203.692 86.6992 202.836 87.5582C201.981 88.4171 201.498 89.5802 201.491 90.795Z" fill="white"/>
<path d="M251.864 90.795C251.864 91.7024 252.132 92.5894 252.634 93.3439C253.136 94.0984 253.849 94.6864 254.684 95.0337C255.519 95.3809 256.437 95.4718 257.323 95.2948C258.209 95.1177 259.023 94.6808 259.662 94.0392C260.301 93.3975 260.736 92.58 260.912 91.69C261.089 90.8001 260.998 89.8776 260.652 89.0393C260.307 88.2009 259.721 87.4844 258.97 86.9802C258.219 86.4761 257.336 86.207 256.432 86.207C255.223 86.2137 254.065 86.6992 253.21 87.5582C252.354 88.4171 251.871 89.5802 251.864 90.795Z" fill="white"/>
<path d="M0 133.912C0 134.82 0.267937 135.707 0.769863 136.461C1.27179 137.216 1.98519 137.804 2.81986 138.151C3.65454 138.498 4.57296 138.589 5.45905 138.412C6.34513 138.235 7.15907 137.798 7.7979 137.156C8.43673 136.515 8.87179 135.697 9.04804 134.807C9.22429 133.917 9.1338 132.995 8.78807 132.156C8.44234 131.318 7.85686 130.602 7.10567 130.097C6.35449 129.593 5.47136 129.324 4.56792 129.324C3.35644 129.324 2.19455 129.808 1.3379 130.668C0.481257 131.528 0 132.695 0 133.912Z" fill="white"/>
<path d="M50.3726 133.912C50.3726 134.82 50.6405 135.707 51.1424 136.461C51.6443 137.216 52.3577 137.804 53.1924 138.151C54.0271 138.498 54.9455 138.589 55.8316 138.412C56.7177 138.235 57.5316 137.798 58.1704 137.156C58.8093 136.515 59.2443 135.697 59.4206 134.807C59.5968 133.917 59.5064 132.995 59.1606 132.156C58.8149 131.318 58.2294 130.602 57.4782 130.097C56.727 129.593 55.8439 129.324 54.9404 129.324C53.729 129.324 52.5671 129.808 51.7105 130.668C50.8538 131.528 50.3726 132.695 50.3726 133.912Z" fill="white"/>
<path d="M100.746 133.912C100.746 134.82 101.014 135.707 101.515 136.461C102.017 137.216 102.731 137.804 103.565 138.151C104.4 138.498 105.319 138.589 106.205 138.412C107.091 138.235 107.905 137.798 108.543 137.156C109.182 136.515 109.617 135.697 109.794 134.807C109.97 133.917 109.879 132.995 109.534 132.156C109.188 131.318 108.602 130.602 107.851 130.097C107.1 129.593 106.217 129.324 105.313 129.324C104.102 129.324 102.94 129.808 102.084 130.668C101.227 131.528 100.746 132.695 100.746 133.912Z" fill="white"/>
<path d="M151.118 133.912C151.118 134.82 151.386 135.707 151.888 136.461C152.39 137.216 153.103 137.804 153.938 138.151C154.773 138.498 155.691 138.589 156.577 138.412C157.463 138.235 158.277 137.798 158.916 137.156C159.555 136.515 159.99 135.697 160.166 134.807C160.342 133.917 160.252 132.995 159.906 132.156C159.56 131.318 158.975 130.602 158.224 130.097C157.473 129.593 156.589 129.324 155.686 129.324C154.475 129.324 153.313 129.808 152.456 130.668C151.599 131.528 151.118 132.695 151.118 133.912Z" fill="white"/>
<path d="M201.491 133.912C201.491 134.82 201.759 135.707 202.261 136.461C202.763 137.216 203.476 137.804 204.311 138.151C205.146 138.498 206.064 138.589 206.95 138.412C207.836 138.235 208.65 137.798 209.289 137.156C209.928 136.515 210.363 135.697 210.539 134.807C210.715 133.917 210.625 132.995 210.279 132.156C209.934 131.318 209.348 130.602 208.597 130.097C207.846 129.593 206.963 129.324 206.059 129.324C204.848 129.324 203.686 129.808 202.829 130.668C201.972 131.528 201.491 132.695 201.491 133.912Z" fill="white"/>
<path d="M251.864 133.912C251.864 134.82 252.132 135.707 252.634 136.461C253.136 137.216 253.849 137.804 254.684 138.151C255.519 138.498 256.437 138.589 257.323 138.412C258.209 138.235 259.023 137.798 259.662 137.156C260.301 136.515 260.736 135.697 260.912 134.807C261.089 133.917 260.998 132.995 260.652 132.156C260.307 131.318 259.721 130.602 258.97 130.097C258.219 129.593 257.336 129.324 256.432 129.324C255.221 129.324 254.059 129.808 253.202 130.668C252.346 131.528 251.864 132.695 251.864 133.912Z" fill="white"/>
</g>
</svg>
