<svg width="1725" height="1642" viewBox="0 0 1725 1642" fill="none" xmlns="http://www.w3.org/2000/svg">
<path d="M993.931 243.276L990.667 249.842C990.479 250.22 990.203 250.546 989.862 250.793C989.521 251.041 989.125 251.202 988.708 251.263L981.451 252.338C980.967 252.407 980.513 252.609 980.139 252.922C979.764 253.235 979.485 253.647 979.334 254.111C979.182 254.575 979.163 255.072 979.279 255.546C979.395 256.02 979.642 256.452 979.991 256.793L985.252 261.938C985.552 262.235 985.778 262.599 985.911 262.999C986.045 263.399 986.082 263.825 986.02 264.242L984.753 271.462C984.66 271.95 984.709 272.454 984.894 272.916C985.078 273.377 985.39 273.776 985.793 274.066C986.196 274.357 986.674 274.526 987.17 274.554C987.666 274.583 988.159 274.469 988.593 274.226L995.082 270.809C995.464 270.619 995.885 270.521 996.311 270.521C996.738 270.521 997.158 270.619 997.54 270.809L1004.03 274.226C1004.46 274.469 1004.96 274.583 1005.45 274.554C1005.95 274.526 1006.43 274.357 1006.83 274.066C1007.23 273.776 1007.54 273.377 1007.73 272.916C1007.91 272.454 1007.96 271.95 1007.87 271.462L1006.64 264.242C1006.56 263.825 1006.59 263.393 1006.72 262.989C1006.86 262.585 1007.09 262.223 1007.41 261.938L1012.63 256.793C1012.98 256.452 1013.23 256.02 1013.34 255.546C1013.46 255.072 1013.44 254.575 1013.29 254.111C1013.14 253.647 1012.86 253.235 1012.48 252.922C1012.11 252.609 1011.66 252.407 1011.17 252.338L1003.91 251.263C1003.5 251.202 1003.1 251.041 1002.76 250.793C1002.42 250.546 1002.14 250.22 1001.96 249.842L998.692 243.276C998.486 242.818 998.151 242.428 997.729 242.155C997.306 241.882 996.814 241.737 996.311 241.737C995.808 241.737 995.316 241.882 994.894 242.155C994.472 242.428 994.137 242.818 993.931 243.276Z" fill="#F5F5F5"/>
<path d="M1502.35 1130.62L1497.43 1134.23C1497.15 1134.44 1496.82 1134.58 1496.47 1134.63C1496.12 1134.68 1495.77 1134.65 1495.43 1134.54L1489.64 1132.58C1489.25 1132.44 1488.84 1132.42 1488.44 1132.5C1488.05 1132.59 1487.68 1132.79 1487.39 1133.07C1487.1 1133.36 1486.9 1133.72 1486.81 1134.11C1486.72 1134.51 1486.74 1134.92 1486.87 1135.31L1488.79 1141.11C1488.91 1141.44 1488.94 1141.79 1488.89 1142.14C1488.83 1142.49 1488.69 1142.82 1488.48 1143.1L1484.64 1147.98C1484.41 1148.31 1484.26 1148.7 1484.23 1149.1C1484.2 1149.51 1484.27 1149.92 1484.46 1150.28C1484.64 1150.65 1484.92 1150.95 1485.26 1151.17C1485.61 1151.39 1486 1151.51 1486.41 1151.51H1492.52C1492.87 1151.51 1493.22 1151.6 1493.54 1151.76C1493.86 1151.93 1494.12 1152.18 1494.32 1152.47L1497.82 1157.46C1498.05 1157.79 1498.38 1158.04 1498.75 1158.19C1499.12 1158.34 1499.53 1158.39 1499.92 1158.33C1500.32 1158.26 1500.69 1158.09 1501 1157.83C1501.3 1157.57 1501.53 1157.23 1501.66 1156.85L1503.5 1151.05C1503.6 1150.71 1503.79 1150.4 1504.03 1150.15C1504.28 1149.9 1504.58 1149.71 1504.92 1149.59L1510.76 1147.83C1511.14 1147.71 1511.48 1147.48 1511.75 1147.18C1512.01 1146.87 1512.19 1146.5 1512.26 1146.11C1512.32 1145.71 1512.28 1145.3 1512.13 1144.93C1511.98 1144.55 1511.73 1144.23 1511.41 1143.99L1506.46 1140.45C1506.16 1140.26 1505.92 1139.99 1505.76 1139.67C1505.6 1139.36 1505.52 1139 1505.53 1138.65V1132.54C1505.54 1132.17 1505.45 1131.79 1505.26 1131.46C1505.08 1131.14 1504.82 1130.86 1504.49 1130.66C1504.17 1130.47 1503.8 1130.36 1503.43 1130.36C1503.05 1130.35 1502.68 1130.44 1502.35 1130.62Z" fill="#F0F0F0"/>
<path d="M1468.59 294.578L1467.17 301.759C1467.08 302.173 1466.89 302.559 1466.62 302.881C1466.34 303.203 1465.99 303.451 1465.6 303.602L1458.8 306.329C1458.34 306.506 1457.94 306.808 1457.65 307.201C1457.36 307.594 1457.18 308.062 1457.14 308.551C1457.1 309.039 1457.2 309.53 1457.42 309.965C1457.65 310.401 1457.99 310.764 1458.42 311.013L1464.71 314.853C1465.09 315.066 1465.4 315.366 1465.63 315.727C1465.85 316.089 1465.99 316.501 1466.02 316.927L1466.48 324.261C1466.52 324.748 1466.7 325.213 1466.99 325.605C1467.28 325.998 1467.68 326.302 1468.13 326.485C1468.58 326.668 1469.08 326.722 1469.56 326.641C1470.04 326.56 1470.49 326.348 1470.86 326.028L1476.35 321.189C1476.67 320.912 1477.06 320.714 1477.47 320.614C1477.88 320.514 1478.32 320.514 1478.73 320.613L1485.83 322.418C1486.31 322.547 1486.81 322.538 1487.28 322.393C1487.75 322.249 1488.17 321.974 1488.5 321.6C1488.82 321.227 1489.03 320.77 1489.1 320.283C1489.17 319.796 1489.1 319.298 1488.91 318.847L1485.99 312.089C1485.79 311.716 1485.69 311.301 1485.69 310.879C1485.69 310.457 1485.79 310.042 1485.99 309.669L1489.83 303.449C1490.05 303.036 1490.16 302.572 1490.14 302.104C1490.12 301.636 1489.97 301.182 1489.72 300.789C1489.46 300.397 1489.11 300.08 1488.69 299.872C1488.27 299.664 1487.8 299.573 1487.33 299.609L1480.04 300.3C1479.61 300.335 1479.18 300.266 1478.79 300.099C1478.39 299.931 1478.04 299.671 1477.77 299.34L1473.09 293.733C1472.79 293.373 1472.4 293.1 1471.96 292.941C1471.52 292.782 1471.05 292.744 1470.59 292.83C1470.13 292.916 1469.7 293.124 1469.35 293.431C1469 293.739 1468.74 294.135 1468.59 294.578Z" fill="#F5F5F5"/>
<path d="M208.267 548.441L205.195 551.552C205.023 551.739 204.804 551.878 204.561 551.952C204.318 552.026 204.059 552.034 203.812 551.974L199.511 551.244C199.222 551.191 198.924 551.219 198.649 551.326C198.375 551.433 198.137 551.615 197.961 551.851C197.785 552.087 197.679 552.367 197.654 552.661C197.63 552.954 197.688 553.248 197.822 553.51L199.857 557.35C199.972 557.576 200.031 557.826 200.031 558.08C200.031 558.333 199.972 558.583 199.857 558.809L197.783 562.649C197.636 562.906 197.567 563.201 197.583 563.497C197.599 563.793 197.701 564.077 197.875 564.317C198.05 564.556 198.29 564.74 198.567 564.846C198.843 564.952 199.145 564.976 199.435 564.915L203.735 564.185C203.986 564.151 204.241 564.175 204.48 564.255C204.72 564.335 204.938 564.469 205.118 564.646L208.19 567.833C208.391 568.048 208.649 568.201 208.934 568.274C209.219 568.346 209.519 568.335 209.798 568.242C210.077 568.149 210.324 567.978 210.508 567.749C210.693 567.52 210.808 567.243 210.839 566.95L211.492 562.649C211.53 562.394 211.631 562.151 211.785 561.944C211.939 561.736 212.142 561.57 212.375 561.459L216.215 559.539C216.474 559.407 216.69 559.206 216.841 558.959C216.993 558.711 217.073 558.427 217.073 558.137C217.073 557.847 216.993 557.563 216.841 557.316C216.69 557.068 216.474 556.868 216.215 556.736L212.375 554.777C212.151 554.659 211.957 554.49 211.811 554.283C211.664 554.076 211.568 553.838 211.531 553.587L210.955 549.171C210.892 548.891 210.754 548.634 210.556 548.427C210.358 548.22 210.107 548.07 209.831 547.995C209.554 547.92 209.262 547.922 208.987 548.001C208.711 548.079 208.462 548.232 208.267 548.441Z" fill="#F5F5F5"/>
<path d="M1359.08 1089.46L1357.12 1093.3C1357.01 1093.53 1356.84 1093.74 1356.63 1093.89C1356.43 1094.04 1356.18 1094.14 1355.93 1094.18L1351.59 1094.8C1351.3 1094.84 1351.03 1094.97 1350.81 1095.16C1350.59 1095.35 1350.42 1095.6 1350.33 1095.88C1350.25 1096.16 1350.24 1096.46 1350.31 1096.74C1350.38 1097.02 1350.53 1097.28 1350.74 1097.48L1353.85 1100.52C1354.04 1100.7 1354.18 1100.92 1354.26 1101.17C1354.34 1101.42 1354.36 1101.68 1354.31 1101.94L1353.58 1106.24C1353.54 1106.53 1353.57 1106.82 1353.68 1107.09C1353.8 1107.36 1353.98 1107.59 1354.21 1107.76C1354.45 1107.93 1354.72 1108.03 1355.01 1108.05C1355.3 1108.08 1355.59 1108.02 1355.85 1107.89L1359.69 1105.86C1359.92 1105.74 1360.17 1105.68 1360.42 1105.68C1360.67 1105.68 1360.92 1105.74 1361.15 1105.86L1364.99 1107.89C1365.25 1108.02 1365.54 1108.08 1365.83 1108.05C1366.12 1108.03 1366.39 1107.93 1366.63 1107.76C1366.86 1107.59 1367.04 1107.36 1367.16 1107.09C1367.27 1106.82 1367.3 1106.53 1367.26 1106.24L1366.53 1101.94C1366.48 1101.68 1366.5 1101.42 1366.58 1101.17C1366.66 1100.92 1366.8 1100.7 1366.99 1100.52L1370.14 1097.48C1370.35 1097.28 1370.5 1097.02 1370.57 1096.73C1370.64 1096.44 1370.63 1096.14 1370.53 1095.86C1370.44 1095.58 1370.27 1095.34 1370.05 1095.15C1369.82 1094.96 1369.54 1094.84 1369.25 1094.8L1364.91 1094.18C1364.66 1094.14 1364.42 1094.03 1364.21 1093.88C1364.01 1093.73 1363.84 1093.53 1363.72 1093.3L1361.8 1089.46C1361.66 1089.22 1361.47 1089.02 1361.23 1088.88C1360.99 1088.74 1360.72 1088.67 1360.44 1088.67C1360.16 1088.67 1359.89 1088.74 1359.65 1088.88C1359.41 1089.02 1359.21 1089.22 1359.08 1089.46Z" fill="#F5F5F5"/>
<path d="M381.796 243.699L381.297 248.038C381.283 248.296 381.201 248.545 381.06 248.761C380.918 248.977 380.722 249.151 380.49 249.267L376.65 251.34C376.392 251.472 376.176 251.673 376.025 251.92C375.873 252.168 375.793 252.452 375.793 252.742C375.793 253.032 375.873 253.316 376.025 253.563C376.176 253.811 376.392 254.011 376.65 254.143L380.49 255.948C380.723 256.056 380.927 256.216 381.087 256.416C381.247 256.615 381.358 256.85 381.412 257.1L382.18 261.401C382.232 261.692 382.365 261.962 382.564 262.181C382.762 262.4 383.018 262.558 383.303 262.638C383.587 262.719 383.889 262.717 384.172 262.634C384.456 262.551 384.71 262.39 384.907 262.169L387.825 258.943C387.999 258.757 388.216 258.614 388.456 258.527C388.696 258.44 388.954 258.412 389.207 258.444L393.547 259.02C393.837 259.059 394.133 259.016 394.401 258.895C394.669 258.774 394.897 258.581 395.061 258.338C395.225 258.094 395.317 257.81 395.328 257.516C395.338 257.223 395.267 256.933 395.121 256.678L392.932 252.838C392.817 252.612 392.758 252.362 392.758 252.108C392.758 251.855 392.817 251.605 392.932 251.379L394.852 247.539C394.973 247.273 395.017 246.979 394.98 246.69C394.943 246.4 394.826 246.127 394.643 245.9C394.46 245.673 394.217 245.501 393.942 245.404C393.667 245.307 393.371 245.288 393.086 245.35L388.823 246.233C388.573 246.286 388.314 246.279 388.067 246.212C387.819 246.146 387.592 246.021 387.403 245.849L384.292 242.739C384.079 242.577 383.827 242.473 383.562 242.435C383.297 242.398 383.027 242.429 382.777 242.525C382.527 242.621 382.306 242.779 382.135 242.985C381.963 243.19 381.846 243.436 381.796 243.699Z" fill="#EBEBEB"/>
<path d="M262.487 1141.22L263.409 1148.9C263.455 1149.34 263.395 1149.78 263.235 1150.19C263.074 1150.59 262.818 1150.96 262.487 1151.24L256.804 1156.27C256.433 1156.61 256.162 1157.04 256.021 1157.53C255.88 1158.01 255.875 1158.52 256.006 1159C256.137 1159.49 256.399 1159.93 256.763 1160.27C257.128 1160.62 257.58 1160.85 258.071 1160.96L265.521 1162.42C265.955 1162.5 266.361 1162.7 266.702 1162.98C267.044 1163.26 267.311 1163.62 267.479 1164.03L270.513 1170.98C270.71 1171.45 271.036 1171.85 271.451 1172.14C271.866 1172.43 272.354 1172.59 272.86 1172.62C273.365 1172.64 273.867 1172.52 274.308 1172.27C274.749 1172.02 275.11 1171.66 275.351 1171.21L279.191 1164.61C279.407 1164.22 279.716 1163.89 280.092 1163.64C280.467 1163.4 280.897 1163.26 281.342 1163.22L289.022 1162.49C289.527 1162.45 290.01 1162.27 290.416 1161.97C290.821 1161.66 291.133 1161.25 291.313 1160.77C291.494 1160.3 291.537 1159.78 291.437 1159.29C291.337 1158.79 291.099 1158.33 290.75 1157.96L285.604 1152.4C285.304 1152.07 285.087 1151.68 284.974 1151.25C284.86 1150.82 284.852 1150.37 284.951 1149.94L286.602 1142.57C286.719 1142.06 286.691 1141.54 286.522 1141.06C286.354 1140.57 286.051 1140.14 285.65 1139.82C285.248 1139.5 284.764 1139.3 284.253 1139.24C283.742 1139.18 283.226 1139.27 282.762 1139.49L275.889 1142.68C275.499 1142.89 275.064 1143 274.622 1143C274.18 1143 273.744 1142.89 273.354 1142.68L266.826 1138.84C266.408 1138.53 265.909 1138.35 265.39 1138.31C264.871 1138.28 264.352 1138.39 263.896 1138.64C263.439 1138.89 263.064 1139.27 262.815 1139.73C262.565 1140.18 262.452 1140.7 262.487 1141.22Z" fill="#EBEBEB"/>
<path d="M597.566 337.548C597.566 338.56 597.866 339.548 598.429 340.389C598.992 341.23 599.792 341.884 600.727 342.27C601.663 342.655 602.692 342.754 603.683 342.554C604.675 342.354 605.585 341.863 606.298 341.145C607.01 340.427 607.494 339.514 607.687 338.52C607.879 337.527 607.773 336.499 607.38 335.567C606.988 334.634 606.327 333.839 605.482 333.283C604.637 332.726 603.646 332.433 602.634 332.441C601.966 332.441 601.303 332.573 600.686 332.83C600.068 333.087 599.508 333.464 599.037 333.939C598.565 334.414 598.193 334.977 597.94 335.596C597.688 336.216 597.561 336.879 597.566 337.548Z" fill="#F0F0F0"/>
<path d="M435.364 1327.42C435.364 1328.43 435.664 1329.42 436.225 1330.26C436.786 1331.1 437.584 1331.76 438.517 1332.14C439.45 1332.53 440.477 1332.63 441.468 1332.43C442.458 1332.24 443.368 1331.75 444.083 1331.03C444.797 1330.32 445.283 1329.41 445.48 1328.42C445.677 1327.43 445.576 1326.4 445.19 1325.47C444.803 1324.54 444.148 1323.74 443.309 1323.18C442.469 1322.62 441.481 1322.32 440.471 1322.32C439.117 1322.32 437.818 1322.85 436.86 1323.81C435.902 1324.77 435.364 1326.07 435.364 1327.42Z" fill="#F5F5F5"/>
<path d="M536.625 245.503C536.625 249.194 537.719 252.803 539.77 255.872C541.821 258.941 544.735 261.333 548.145 262.745C551.556 264.158 555.308 264.527 558.928 263.807C562.548 263.087 565.874 261.31 568.484 258.7C571.093 256.09 572.871 252.764 573.591 249.144C574.311 245.524 573.942 241.772 572.529 238.361C571.116 234.951 568.724 232.037 565.655 229.986C562.586 227.935 558.978 226.841 555.287 226.841C552.835 226.836 550.406 227.315 548.139 228.251C545.873 229.187 543.814 230.562 542.08 232.296C540.346 234.03 538.971 236.089 538.035 238.355C537.099 240.622 536.62 243.051 536.625 245.503Z" fill="#F0F0F0"/>
<path d="M1508.68 527.09C1508.68 529.133 1509.29 531.13 1510.42 532.829C1511.56 534.528 1513.17 535.852 1515.06 536.634C1516.95 537.415 1519.02 537.62 1521.03 537.221C1523.03 536.823 1524.87 535.839 1526.32 534.394C1527.76 532.95 1528.74 531.109 1529.14 529.106C1529.54 527.102 1529.34 525.025 1528.56 523.137C1527.77 521.25 1526.45 519.637 1524.75 518.502C1523.05 517.367 1521.05 516.761 1519.01 516.761C1516.28 516.771 1513.65 517.862 1511.72 519.797C1509.78 521.732 1508.69 524.354 1508.68 527.09Z" fill="#F0F0F0"/>
<path d="M69.7192 1160.54C72.5822 1160.54 74.9032 1158.22 74.9032 1155.35C74.9032 1152.49 72.5822 1150.17 69.7192 1150.17C66.8561 1150.17 64.5352 1152.49 64.5352 1155.35C64.5352 1158.22 66.8561 1160.54 69.7192 1160.54Z" fill="#F0F0F0"/>
<path d="M1331.62 1350.5C1331.62 1352.35 1332.17 1354.15 1333.2 1355.69C1334.22 1357.22 1335.68 1358.42 1337.39 1359.13C1339.1 1359.83 1340.97 1360.01 1342.79 1359.65C1344.6 1359.29 1346.26 1358.39 1347.56 1357.09C1348.87 1355.78 1349.75 1354.11 1350.11 1352.3C1350.46 1350.49 1350.27 1348.61 1349.56 1346.9C1348.85 1345.2 1347.65 1343.74 1346.11 1342.72C1344.57 1341.7 1342.76 1341.16 1340.91 1341.17C1339.69 1341.17 1338.48 1341.41 1337.35 1341.88C1336.22 1342.35 1335.19 1343.04 1334.33 1343.91C1333.46 1344.77 1332.78 1345.8 1332.32 1346.93C1331.85 1348.07 1331.62 1349.28 1331.62 1350.5Z" fill="#F0F0F0"/>
<path d="M101.553 432.627C114.699 440.359 129.239 445.426 144.344 447.538C159.448 449.65 174.821 448.766 189.584 444.936C204.346 441.106 218.21 434.406 230.383 425.218C242.556 416.029 252.799 404.533 260.529 391.385C261.873 389.12 263.14 386.816 264.369 384.512C243.05 389.306 220.917 389.166 199.66 384.102C178.403 379.037 158.585 369.183 141.717 355.29C124.85 341.398 111.38 323.835 102.336 303.943C93.2925 284.051 88.9134 262.355 89.5337 240.512C74.5241 252.129 62.589 267.247 54.7718 284.543C46.9545 301.839 43.4932 320.787 44.6904 339.729C45.8876 358.672 51.7068 377.033 61.6393 393.207C71.5719 409.381 85.3153 422.876 101.668 432.512L101.553 432.627Z" fill="#F5F5F5"/>
<path d="M79.6263 328.294C82.752 330.599 86.3496 332.184 90.1606 332.935C93.9716 333.685 97.9015 333.582 101.668 332.633C88.5499 328.075 77.1089 319.672 68.8359 308.518C69.0577 312.407 70.1408 316.199 72.0068 319.619C73.8729 323.039 76.4754 326.002 79.6263 328.294Z" fill="#F0F0F0"/>
<path d="M193.482 420.454C197.205 419.335 200.635 417.409 203.528 414.814C206.422 412.219 208.708 409.018 210.225 405.439C204.501 409.302 198.22 412.267 191.601 414.233C184.989 416.225 178.115 417.209 171.21 417.151C174.454 419.301 178.13 420.711 181.979 421.282C185.828 421.853 189.755 421.57 193.482 420.454Z" fill="#F0F0F0"/>
<path d="M102.129 375.871C106.01 375.695 109.804 374.66 113.237 372.84C116.67 371.021 119.657 368.463 121.982 365.35C115.515 367.742 108.712 369.103 101.822 369.382C94.9186 369.738 88.0017 369.026 81.3162 367.27C83.9356 370.15 87.1602 372.416 90.7586 373.903C94.357 375.39 98.24 376.062 102.129 375.871Z" fill="#F0F0F0"/>
<path d="M133.886 419.378C136.362 422.375 139.471 424.787 142.99 426.44C146.509 428.093 150.35 428.947 154.238 428.94C148.436 425.212 143.253 420.6 138.878 415.269C134.455 409.956 130.869 404 128.241 397.605C127.514 401.426 127.643 405.361 128.619 409.126C129.595 412.891 131.394 416.392 133.886 419.378Z" fill="#F0F0F0"/>
<path d="M1314.05 1230.84C1540.64 1004.25 1540.64 636.872 1314.05 410.28C1087.46 183.689 720.082 183.689 493.491 410.28C266.899 636.872 266.899 1004.25 493.491 1230.84C720.082 1457.43 1087.46 1457.43 1314.05 1230.84Z" fill="#D92440"/>
<path opacity="0.7" d="M1314.05 1230.84C1540.64 1004.25 1540.64 636.872 1314.05 410.28C1087.46 183.689 720.082 183.689 493.491 410.28C266.899 636.872 266.899 1004.25 493.491 1230.84C720.082 1457.43 1087.46 1457.43 1314.05 1230.84Z" fill="white"/>
<g opacity="0.2">
<path d="M1470.55 945.265L1461.53 925.297L1428.43 921.687L1401.89 905.099L1374.17 890.161L1351.13 857.636L1319.22 830.411L1303.32 875.991L1320.14 902.295L1348.44 918.001L1362.72 947.569L1386.38 965.771L1411.72 976.638L1403.08 1007.13L1394.21 1040.07L1387.8 1076.55L1352.51 1074.33L1326.32 1094.79L1297.37 1105.24L1267.99 1096.22L1242.65 1073.56L1211.54 1052.21L1177.33 1034.08L1158.13 1001.75L1145.65 974.641L1129.87 946.187L1129.29 913.931L1128.48 881.713L1114.35 853.835L1103.45 900.491L1092.35 928.791L1093 959.972L1081.14 989.079L1066.55 1023.64L1058.87 1058.2L1079.14 1070.68L1111.55 1073.14L1086.28 1104.09L1063.24 1132.73L1038.78 1160.42L1008.06 1184L972.887 1198.78L938.942 1215.91L899.697 1222.9L871.55 1251.54L832.267 1258.11L796.977 1276.08L760.612 1290.29L721.559 1290.67L694.295 1276.96L655.511 1276.46L672.369 1246.44L681.585 1219.86L693.105 1182L699.172 1141.68L706.852 1102.86L717.527 1070.53L730.007 1037.5L718.487 1001.64L735.076 967.307L716.26 938.007L695.332 912.74L668.452 892.004L651.633 863.742L638.846 834.98L629.476 804.491L624.715 771.467L613.463 736.407L643.838 707.723L661.963 672.817L693.796 652.849L724.286 655.806L758.846 659.876L792.945 666.635L830.231 660.567L859.185 690.865L896.548 702.769L929.841 722.199L962.903 742.129L996.35 761.982L1020 795.236L1056.1 811.556L1089.82 807.716L1122.57 810.75L1154.83 817.739L1193.53 830.065L1181.32 782.679L1169.19 742.974L1144.61 730.686L1124.49 703.307L1095.54 692.439L1068.66 680.228L1065.24 651.083L1056.29 622.129L1049.3 591.409L1012.29 573.899L972.811 565.335L937.483 558.577L911.678 577.777L877.809 580.158L840.523 585.841L798.283 549.207L823.857 524.555L822.974 490.878L840.215 465.342L880.804 447.102L908.836 415.767L941.63 422.718L972.619 442.302H1010.17L1045.77 428.247L1082.94 433.508L1112.28 417.035L1132.75 392.228L1155.21 370.033L1189.43 365.156L1221.68 381.054H1255.55L1287.08 387.428L1296.41 393.188C1371.17 461.948 1426.6 549.114 1457.16 645.986C1487.71 742.858 1492.33 846.05 1470.55 945.265Z" fill="#D92440"/>
<path d="M947.198 1252.2L930.225 1276.47L893.054 1284.53L863.908 1295.05L905.572 1308.8H941.553L971.467 1286.18L975.499 1268.36L947.198 1252.2Z" fill="#D92440"/>
<path d="M512.51 1248.05L511.819 1248.4C439.926 1182.47 385.783 1099.51 354.379 1007.17L351.499 992.075L346.699 982.705C317.688 883.717 315.752 778.76 341.092 678.77L348.119 704.267L356.567 740.056L377.956 773.541L376.612 812.67L394.852 846.885L398.692 884.21L401.073 914.93L396.657 945.342L378.955 973.72L390.091 1010.55L408.177 1042.3L419.313 1069.8L423.959 1107.66L443.159 1134.08L450.839 1166.49L472.497 1191.72L487.473 1220.4L512.51 1248.05Z" fill="#D92440"/>
<path d="M987.825 267.122L965.092 276.53L936.062 293.195L906.532 308.862L876.465 322.878L843.134 328.37L811.838 338.469L780.427 328.024L747.863 321.227L716.567 309.323L684.542 312.664L651.479 327.218L624.599 352.677L603.787 384.971L566.385 398.603L546.686 431.474L525.335 458.546L519.959 494.334L494.539 520.139L483.748 553.01L461.361 580.312L452.452 611.032L423.537 606.808L391.742 600.779L369.931 593.406C419.581 476.714 506.083 379.494 616.211 316.611C726.338 253.729 854.03 228.645 979.761 245.195L987.825 267.122Z" fill="#D92440"/>
</g>
<path d="M1490.75 628.811C1402.66 703.883 1205.13 674.623 1157.05 658.802C1108.98 642.981 1185.78 651.544 1224.41 643.442C1263.04 635.339 1277.44 601.739 1335.54 628.082C1393.64 654.424 1393.44 662.104 1418.14 633.151C1442.83 604.197 1540.67 586.303 1490.75 628.811Z" fill="white"/>
<path d="M331.646 1003.44C387.21 1151.43 642.686 1247.24 710.423 1260.15C778.161 1273.05 680.932 1232.5 640.036 1197.4C599.14 1162.3 604.324 1112.42 517.502 1105.24C430.679 1098.06 425.802 1107.54 415.473 1056.63C405.143 1005.71 300.158 919.614 331.646 1003.44Z" fill="white"/>
<path d="M736.113 623.358C580.9 591.755 432.983 498.174 419.274 447.256C411.172 417.227 433.521 447.678 458.75 457.086C483.978 466.494 538.084 433.125 553.444 473.176C568.804 513.227 555.671 535.077 598.449 549.515C641.226 563.953 668.836 544.485 693.297 578.661C717.758 612.837 778.506 631.998 736.113 623.358Z" fill="white"/>
<path d="M1122.22 1139.3C910.795 1126.44 697.444 1030.17 669.758 965.311C653.438 926.911 688.727 963.237 723.902 970.955C759.076 978.674 824.471 924.415 852.311 974.565C880.151 1024.72 866.788 1056.13 926.116 1067.26C985.444 1078.4 1018.28 1047.41 1057.21 1088.11C1096.15 1128.82 1179.98 1142.8 1122.22 1139.3Z" fill="white"/>
<path d="M1254.44 1304.77C1162.28 1368.47 983.217 1363.98 949.079 1335.18C928.958 1318.21 975.23 1318.09 997.886 1315.63C1020.54 1313.18 1048.84 1267.44 1075.68 1291.9C1102.53 1316.36 1086.32 1330.3 1123.03 1319.86C1159.74 1309.41 1169.57 1282.38 1203.1 1294.36C1236.62 1306.34 1284.54 1283.95 1254.44 1304.77Z" fill="white"/>
<path d="M1138.62 464.267C1249.98 493.682 1370.02 467.493 1390.53 428.939C1402.62 406.206 1380.89 424.101 1361.84 422.987C1342.79 421.874 1313.88 373.643 1294.64 402.29C1275.4 430.936 1279.28 454.437 1247.49 451.211C1215.69 447.986 1201.41 421.298 1177.29 441.65C1153.18 462.002 1108.21 456.242 1138.62 464.267Z" fill="white"/>
<path d="M595.569 905.369L577.06 889.548L612.042 845.119L630.59 860.94L595.569 905.369Z" fill="#7F3E3B"/>
<path d="M583.972 882.06L604.516 898.994C604.886 899.29 605.137 899.709 605.222 900.175C605.307 900.641 605.22 901.122 604.977 901.529L594.071 920.729C593.787 921.189 593.408 921.584 592.961 921.889C592.513 922.193 592.006 922.398 591.473 922.493C590.94 922.587 590.393 922.567 589.868 922.436C589.343 922.304 588.852 922.062 588.426 921.727C581.169 915.468 570.839 906.367 561.546 898.687C550.679 889.701 551.409 891.007 538.506 880.524C530.826 874.149 535.473 864.895 539.313 866.892C556.823 875.916 558.513 876.991 578.02 879.948C580.162 880.084 582.224 880.815 583.972 882.06Z" fill="#263238"/>
<path opacity="0.2" d="M612.043 845.157L594.033 868.044L612.542 883.864L630.59 860.94L612.043 845.157Z" fill="black"/>
<path d="M735.806 777.496C863.332 786.751 896.241 811.749 955.338 790.744L960.906 735.64L884.759 706.802C884.759 706.802 792.906 694.13 722.058 713.023C648.407 732.645 598.295 850.533 598.295 850.533L630.09 873.573C630.09 873.573 654.513 805.644 735.806 777.496Z" fill="black"/>
<path d="M599.985 838.898L591.883 853.99L624.868 881.83L636.235 870.617L599.985 838.898Z" fill="#263238"/>
<path d="M612.887 1160.19L499.223 1142.95C489.435 1141.45 480.083 1137.87 471.799 1132.44C463.516 1127.02 456.494 1119.88 451.211 1111.5C445.928 1103.13 442.505 1093.72 441.176 1083.9C439.846 1074.09 440.641 1064.11 443.505 1054.63C446.411 1045.15 451.322 1036.41 457.902 1029C464.483 1021.59 472.581 1015.68 481.646 1011.68C490.711 1007.67 500.531 1005.66 510.441 1005.78C520.352 1005.91 530.119 1008.16 539.083 1012.39L643.031 1061.5C649.241 1064.44 654.186 1069.51 656.964 1075.79C659.742 1082.08 660.167 1089.15 658.161 1095.72L644.529 1140.41C642.494 1146.95 638.182 1152.54 632.376 1156.17C626.57 1159.8 619.655 1161.23 612.887 1160.19Z" fill="#D92440"/>
<path opacity="0.4" d="M612.887 1160.19L499.223 1142.95C489.435 1141.45 480.083 1137.87 471.799 1132.44C463.516 1127.02 456.494 1119.88 451.211 1111.5C445.928 1103.13 442.505 1093.72 441.176 1083.9C439.846 1074.09 440.641 1064.11 443.505 1054.63C446.411 1045.15 451.322 1036.41 457.902 1029C464.483 1021.59 472.581 1015.68 481.646 1011.68C490.711 1007.67 500.531 1005.66 510.441 1005.78C520.352 1005.91 530.119 1008.16 539.083 1012.39L643.031 1061.5C649.241 1064.44 654.186 1069.51 656.964 1075.79C659.742 1082.08 660.167 1089.15 658.161 1095.72L644.529 1140.41C642.494 1146.95 638.182 1152.54 632.376 1156.17C626.57 1159.8 619.655 1161.23 612.887 1160.19Z" fill="black"/>
<path d="M577.252 854.719C598.295 859.289 629.015 862.399 634.852 851.878C668.99 789.785 719.332 690.598 730.315 668.403C732.004 665.1 729.931 662.105 724.478 659.763L649.943 627.622C634.353 621.9 615.383 626.931 601.099 632.422C513.431 666.367 351.268 736.102 313.943 764.134C353.572 800.383 505.675 839.129 577.252 854.719Z" fill="#D92440"/>
<path opacity="0.2" d="M577.252 854.719C598.295 859.289 629.015 862.399 634.852 851.878C668.99 789.785 719.332 690.598 730.315 668.403C732.004 665.1 729.931 662.105 724.478 659.763L649.943 627.622C634.353 621.9 615.383 626.931 601.099 632.422C513.431 666.367 351.268 736.102 313.943 764.134C353.572 800.383 505.675 839.129 577.252 854.719Z" fill="black"/>
<path d="M1218.3 951.602C1226.52 951.794 1235.47 949.682 1228.17 942.002C1184.43 896.153 1113.62 823.423 1097.88 807.295C1095.61 804.91 1092.73 803.196 1089.55 802.341L1047.31 791.052C1039.28 789.324 1039.4 795.237 1040.89 800.805C1050.15 835.135 1073 903.257 1088.13 926.949C1126.37 945.65 1190.42 950.911 1218.3 951.602Z" fill="#D92440"/>
<path opacity="0.2" d="M1218.3 951.602C1226.52 951.794 1235.47 949.682 1228.17 942.002C1184.43 896.153 1113.62 823.423 1097.88 807.295C1095.61 804.91 1092.73 803.196 1089.55 802.341L1047.31 791.052C1039.28 789.324 1039.4 795.237 1040.89 800.805C1050.15 835.135 1073 903.257 1088.13 926.949C1126.37 945.65 1190.42 950.911 1218.3 951.602Z" fill="black"/>
<path d="M516.772 650.393C504.906 647.782 493.156 645.362 481.905 643.212L482.634 639.372C493.924 641.522 505.674 643.942 517.578 646.553L516.772 650.393Z" fill="#D92440"/>
<path d="M453.911 638.143C412.558 630.711 370.663 626.704 328.65 626.162C311.763 626.092 294.887 627.054 278.116 629.042L277.655 625.202C294.582 623.234 311.61 622.272 328.65 622.322C370.88 622.876 412.993 626.896 454.564 634.341L453.911 638.143Z" fill="#D92440"/>
<path d="M191.87 666.444C373.271 555.084 863.87 779.148 1127.98 837.631C1250.63 864.819 1175.56 964.582 1116.77 977.638C1057.98 990.694 337.79 1039.08 100.977 931.558C-135.836 824.038 106.929 718.668 191.87 666.444Z" fill="#D92440"/>
<path d="M1101.64 980.018C1132.79 977.719 1162.59 966.373 1187.38 947.375C1212.17 928.377 1230.87 902.553 1241.19 873.074C1261.23 817.126 1275.44 777.074 1275.44 777.074C1259.76 768.081 1242.11 763.058 1224.04 762.442C1205.97 761.827 1188.02 765.637 1171.76 773.542L1035.86 839.666L1101.64 980.018Z" fill="#D92440"/>
<path opacity="0.2" d="M1095.08 901.49C1104.18 924.185 1130.44 951.141 1149.83 968.921C1170.42 960.627 1189.02 948.063 1204.4 932.057L1095.08 901.49Z" fill="black"/>
<path opacity="0.2" d="M1172.91 919.423C1148.55 921.702 1124.07 922.561 1099.61 921.996C1075.11 921.573 1050.61 919.576 1026.19 917.08C1001.76 914.584 977.457 910.706 953.227 906.559C856.267 889.164 761.457 861.055 667.953 828.952C644.567 820.965 621.22 812.709 597.681 804.376C585.815 800.306 574.218 796.12 561.623 792.28C555.057 790.591 548.567 788.44 541.847 787.212L531.748 785.368C528.399 784.689 525.015 784.202 521.61 783.909C494.152 780.798 466.353 782.882 439.665 790.053C426.498 793.779 413.655 798.569 401.265 804.376C388.943 810.192 377.093 816.958 365.822 824.613L357.412 830.527L349.31 836.748L341.63 843.084C339.402 844.965 337.137 846.924 334.794 848.69C325.655 856.063 316.055 863.167 306.302 870.04C286.686 883.728 266.343 896.342 245.361 907.826C224.847 919.242 203.454 929.001 181.386 937.01C171.122 940.759 160.564 943.649 149.822 945.65C146.826 946.188 143.87 946.61 141.028 946.84C173.143 956.891 205.895 964.78 239.063 970.456C249.93 964.927 260.49 958.936 270.897 952.869C293.085 939.73 314.521 925.359 335.102 909.823C345.431 902.143 355.53 893.964 365.438 885.439C367.895 883.327 370.353 881.1 372.772 878.949L379.3 873.151L385.751 867.813L392.471 862.706C401.537 856.097 411.087 850.18 421.041 845.004C430.916 839.933 441.19 835.682 451.761 832.293C472.988 825.782 495.25 823.32 517.386 825.036C520.169 825.154 522.94 825.462 525.681 825.957L533.975 827.109C539.505 828.031 544.958 829.605 550.449 830.949C561.739 833.944 573.489 837.708 585.393 841.317C609.047 848.728 632.855 856.255 656.74 863.512C752.279 892.543 849.623 917.733 949.079 931.941C973.962 935.32 998.999 938.239 1023.96 940.12C1048.92 942.002 1074.19 942.924 1099.42 942.463C1124.68 942.149 1149.9 940.328 1174.95 937.01C1184.83 935.653 1194.65 934.028 1204.4 932.133C1210.42 926.022 1215.92 919.42 1220.84 912.396C1205.02 915.468 1189 917.81 1172.91 919.423Z" fill="white"/>
<path opacity="0.2" d="M742.718 980.019C742.718 980.019 562.622 979.059 391.473 962.739C387.633 962.355 376.612 942.886 364.9 938.047C363.633 951.564 366.014 960.166 359.217 959.436C260.222 948.723 140.337 924.185 93.5657 899.379C69.7577 814.207 17.2649 788.595 17.2649 788.595C-15.5287 832.409 -8.7703 881.792 100.977 931.52C337.79 1039.04 1057.98 990.656 1116.77 977.6L742.718 980.019Z" fill="black"/>
<path d="M391.511 907.596C386.007 907.621 380.643 909.336 376.144 912.508C371.645 915.68 368.229 920.157 366.357 925.334C364.485 930.51 364.247 936.137 365.676 941.453C367.105 946.769 370.132 951.518 374.347 955.058C492.734 1050.37 713.918 1202.28 768.715 1239.72C777.051 1245.37 786.441 1249.29 796.324 1251.24L930.724 1277.31C946.814 1280.42 953.188 1271.4 946.43 1258.49C904.651 1178.81 808.42 1017 752.548 962.085C627.748 918.693 478.065 909.132 391.511 907.596Z" fill="#D92440"/>
<path opacity="0.2" d="M751.78 1207.73L389.937 926.527C378.11 917.35 360.868 928.908 365.745 943.039C367.414 947.78 370.397 951.949 374.347 955.058C492.734 1050.37 713.918 1202.28 768.715 1239.72C777.051 1245.37 786.441 1249.29 796.324 1251.24L930.724 1277.31C938.788 1278.89 944.394 1277.31 947.159 1273.89L826.391 1244.06C799.26 1237.28 773.846 1224.91 751.78 1207.73Z" fill="black"/>
<path d="M1084.44 881.138C1082.52 881.398 1080.73 882.25 1079.31 883.576C1077.9 884.902 1076.93 886.635 1076.55 888.535C1076.16 890.435 1076.38 892.408 1077.17 894.179C1077.96 895.95 1079.28 897.432 1080.95 898.418C1126.79 925.298 1211.08 966.54 1231.97 976.677C1235.14 978.2 1238.59 979.063 1242.11 979.212L1289.96 981.324C1295.68 981.592 1297.44 978.136 1294.41 974.028C1275.9 948.607 1234.31 897.573 1212.2 881.445C1166.73 872.844 1114.47 877.221 1084.44 881.138Z" fill="#D92440"/>
<path opacity="0.2" d="M1224.48 966.463L1084.86 887.743C1083.87 887.194 1082.73 886.973 1081.61 887.11C1080.48 887.247 1079.43 887.735 1078.6 888.506C1077.77 889.277 1077.2 890.29 1076.98 891.401C1076.76 892.512 1076.9 893.665 1077.37 894.694C1078.15 896.302 1079.4 897.639 1080.95 898.534C1126.79 925.414 1211.08 966.655 1231.97 976.793C1235.14 978.316 1238.59 979.178 1242.11 979.327L1289.96 981.439C1290.97 981.642 1292.02 981.563 1293 981.211C1293.97 980.859 1294.83 980.248 1295.49 979.442L1252.13 975.18C1242.41 974.241 1232.99 971.271 1224.48 966.463Z" fill="black"/>
<path d="M201.086 661.26C197.937 662.873 194.865 664.601 191.87 666.444C180.35 673.433 166.372 681.343 150.935 690.098C158.116 710.757 180.772 734.873 209.534 756.53L262.718 715.749C236.068 698.93 213.412 679.461 201.086 661.26Z" fill="white"/>
<path d="M281.687 726.809L234.263 773.311C246.347 780.914 258.875 787.787 271.78 793.893C275.754 795.741 280.064 796.754 284.445 796.87C288.826 796.987 293.184 796.204 297.25 794.57C301.316 792.936 305.005 790.486 308.087 787.372C311.17 784.257 313.581 780.543 315.172 776.46C318.095 768.932 318.07 760.578 315.101 753.067C312.133 745.557 306.44 739.443 299.159 735.948C293.361 733.068 287.486 729.996 281.687 726.809Z" fill="white"/>
<path d="M1315.88 867.89C1406.23 887.09 1639.24 925.49 1520.09 782.565C1657.94 923.148 1511.45 944.383 1385.69 951.525C1373.98 952.204 1362.27 950.224 1351.44 945.736C1340.61 941.247 1330.93 934.365 1323.13 925.605C1313.94 915.287 1305.63 904.214 1298.29 892.505C1296.63 889.75 1295.81 886.57 1295.93 883.355C1296.06 880.14 1297.12 877.032 1298.99 874.414C1300.86 871.796 1303.45 869.784 1306.46 868.624C1309.46 867.465 1312.73 867.21 1315.88 867.89Z" fill="#D92440"/>
<path opacity="0.2" d="M1315.88 867.89C1406.23 887.09 1639.24 925.49 1520.09 782.565C1657.94 923.148 1511.45 944.383 1385.69 951.525C1373.98 952.204 1362.27 950.224 1351.44 945.736C1340.61 941.247 1330.93 934.365 1323.13 925.605C1313.94 915.287 1305.63 904.214 1298.29 892.505C1296.63 889.75 1295.81 886.57 1295.93 883.355C1296.06 880.14 1297.12 877.032 1298.99 874.414C1300.86 871.796 1303.45 869.784 1306.46 868.624C1309.46 867.465 1312.73 867.21 1315.88 867.89Z" fill="white"/>
<path d="M673.482 957.746L634.698 998.949L615.921 979.48L654.705 938.315L673.482 957.746Z" fill="#7F3E3B"/>
<path d="M622.564 974.719L645.22 988.582C645.624 988.809 645.928 989.18 646.07 989.622C646.212 990.063 646.183 990.542 645.988 990.962L636.926 1010.89C636.699 1011.4 636.366 1011.85 635.948 1012.22C635.529 1012.58 635.037 1012.85 634.504 1013.01C633.971 1013.17 633.41 1013.21 632.86 1013.13C632.31 1013.05 631.785 1012.85 631.319 1012.54C623.217 1007.4 621.028 1005.21 610.737 998.911C598.718 991.577 590.27 990.348 575.947 982.13C567.268 977.177 570.763 967.538 574.91 968.844C588.158 972.684 608.203 975.026 616.382 973.183C618.564 972.877 620.779 973.428 622.564 974.719Z" fill="#263238"/>
<path opacity="0.2" d="M673.482 957.784L653.476 979.019L634.698 959.551L654.666 938.315L673.482 957.784Z" fill="black"/>
<path d="M641.495 932.556L632.932 947.263L666.724 975.525L678.667 964.696L641.495 932.556Z" fill="white"/>
<path d="M992.049 733.721L967.473 735.218L977.457 763.058C977.457 763.058 999.575 758.988 999.307 746.892L992.049 733.721Z" fill="#7F3E3B"/>
<path d="M950.347 754.303L955.492 763.442C956.482 765.21 958.069 766.567 959.969 767.27C961.869 767.974 963.958 767.978 965.86 767.282L977.38 763.058L967.396 735.218L953.687 742.552C952.689 743.097 951.809 743.835 951.1 744.724C950.39 745.612 949.864 746.633 949.553 747.727C949.242 748.821 949.152 749.966 949.288 751.095C949.425 752.224 949.784 753.314 950.347 754.303Z" fill="#7F3E3B"/>
</svg>

