<?xml version="1.0" encoding="utf-8"?>
<!-- Generator: Adobe Illustrator 27.4.1, SVG Export Plug-In . SVG Version: 6.00 Build 0)  -->
<svg version="1.1" id="Background_xA0_Image_00000106147164902325659790000003901557599597607590_"
	 xmlns="http://www.w3.org/2000/svg" xmlns:xlink="http://www.w3.org/1999/xlink" x="0px" y="0px" viewBox="0 0 212.4 50.6"
	 style="enable-background:new 0 0 212.4 50.6;" xml:space="preserve">
<style type="text/css">
	.st0{fill:#FFFFFF;}
</style>
<g>
	<path class="st0" d="M0,50.6C0,33.8,0,16.9,0,0c70.8,0,141.6,0,212.4,0c0,16.9,0,33.8,0,50.6C141.6,50.6,70.8,50.6,0,50.6z
		 M43.5,7.5C43.5,7.5,43.5,7.5,43.5,7.5c-2.9,0-5.7,0-8.6,0c-10.5,0-21.1,0-31.6,0c-0.5,0-0.9,0.3-0.9,0.9c0,1.6,0.4,3,1.3,4.3
		c2,2.9,4.9,4.2,8.3,4.3c1.8,0.1,3.6,0,5.4,0c0.2,0,0.3,0,0.5,0c0.1,0,0.2,0.1,0.2,0.2c0.3,1.7,1.2,3,2.6,4.1c1.8,1.4,3.9,2,6.2,2.1
		c2,0,3.9,0,5.9,0c0.2,0,0.3,0,0.4,0.3c0.4,2,1.5,3.5,3.2,4.6c1.6,1,3.3,1.5,5.2,1.5c2,0,4.1,0,6.1,0c0.2,0,0.3,0,0.3,0.2
		c0.1,0.9,0.4,1.8,0.9,2.6c1.5,2.3,3.6,3.5,6.3,3.5c2,0,4,0,6.1,0c0.4,0,0.5,0,0.6,0.5c0.1,0.4,0.1,0.8,0.2,1.1
		c0.8,2.7,3.2,4.9,6.4,4.8c1.6-0.1,3.2,0,4.8,0c5,0,10,0,15,0c0.2,0,0.4,0.1,0.5,0.2c3.7,2.9,7.9,4.8,12.5,5.7
		c1.1,0.2,2.2,0.3,3.3,0.4c1.4,0.2,2.8,0.1,4.2,0c1.5-0.1,3-0.4,4.5-0.7c4.1-0.9,7.7-2.8,11-5.4c0.1-0.1,0.3-0.2,0.5-0.2
		c1.6,0,3.2,0,4.8,0c5.1,0,10.1,0,15.2,0c2.5,0,4.4-1.3,5.6-3.5c0.4-0.8,0.7-1.6,0.8-2.5c0-0.3,0.2-0.4,0.4-0.4c2,0,4.1,0,6.1,0
		c2.4,0,4.4-0.9,5.8-2.8c0.7-0.9,1.2-2,1.4-3.2c0-0.3,0.1-0.3,0.4-0.3c2,0,4.1,0,6.1,0c1.9,0,3.7-0.5,5.3-1.5
		c1.6-1.1,2.7-2.6,3.1-4.6c0-0.2,0.1-0.2,0.3-0.2c1.9,0,3.8,0,5.7,0c0.8,0,1.5-0.1,2.3-0.2c1.3-0.2,2.5-0.7,3.6-1.4
		c1.6-1.1,2.7-2.5,3.1-4.4c0-0.2,0.1-0.3,0.3-0.3c1.7,0,3.5,0,5.2,0c1,0,1.9-0.1,2.8-0.3c1.8-0.4,3.3-1.1,4.7-2.4
		c1.7-1.6,2.7-3.6,2.7-5.9c0-0.6-0.3-0.9-0.9-0.9c-3.2,0-6.5,0-9.7,0c-13.9,0-27.9,0-41.8,0c-9.5,0-19.1,0-28.6,0
		c-0.3,0-0.6,0-0.9,0.1c-3,0.6-4.7,3.6-3.6,6.4c0.6,1.6,0.9,3.3,1.1,5c0.2,2,0,4.1-0.5,6c-0.6,2.3-1.5,4.4-2.8,6.3
		c-2,2.9-4.5,5.1-7.6,6.6c-3.1,1.5-6.4,2.2-9.8,1.9c-1.8-0.1-3.5-0.5-5.2-1.1c-4.5-1.6-7.9-4.4-10.4-8.5c-1.8-3-2.6-6.2-2.7-9.7
		c0-2.4,0.4-4.6,1.2-6.9c1-3.1-1.3-6.3-4.5-6.3c-1.4,0-2.7,0-4.1,0C67.5,7.5,55.5,7.5,43.5,7.5z M106.4,36.2
		c8.6,0.1,15.5-6.8,15.9-14.9c0.4-9.3-7-16.6-15.7-16.6c-8.7,0-15.5,6.8-15.9,14.9C90.2,29.1,97.9,36.2,106.4,36.2z"/>
	<path d="M43.5,7.5c12,0,24,0,36,0c1.4,0,2.7,0,4.1,0c3.2,0,5.6,3.2,4.5,6.3c-0.8,2.2-1.2,4.5-1.2,6.9c0,3.4,0.9,6.7,2.7,9.7
		c2.4,4.1,5.9,6.9,10.4,8.5c1.7,0.6,3.4,0.9,5.2,1.1c3.4,0.2,6.7-0.4,9.8-1.9c3.1-1.5,5.7-3.7,7.6-6.6c1.3-1.9,2.3-4,2.8-6.3
		c0.5-2,0.7-4,0.5-6c-0.1-1.7-0.5-3.4-1.1-5c-1.1-2.8,0.6-5.8,3.6-6.4c0.3-0.1,0.6-0.1,0.9-0.1c9.5,0,19.1,0,28.6,0
		c13.9,0,27.9,0,41.8,0c3.2,0,6.5,0,9.7,0c0.6,0,0.9,0.3,0.9,0.9c-0.1,2.4-1,4.3-2.7,5.9c-1.3,1.2-2.9,2-4.7,2.4
		c-0.9,0.2-1.9,0.3-2.8,0.3c-1.7,0-3.5,0-5.2,0c-0.2,0-0.3,0.1-0.3,0.3c-0.4,1.9-1.5,3.3-3.1,4.4c-1.1,0.7-2.3,1.2-3.6,1.4
		c-0.7,0.1-1.5,0.2-2.3,0.2c-1.9,0-3.8,0-5.7,0c-0.2,0-0.3,0-0.3,0.2c-0.4,2-1.4,3.5-3.1,4.6c-1.6,1.1-3.4,1.5-5.3,1.5
		c-2,0-4.1,0-6.1,0c-0.2,0-0.3,0.1-0.4,0.3c-0.2,1.2-0.6,2.3-1.4,3.2c-1.5,1.9-3.5,2.8-5.8,2.8c-2,0-4.1,0-6.1,0
		c-0.3,0-0.4,0.1-0.4,0.4c-0.1,0.9-0.4,1.7-0.8,2.5c-1.2,2.2-3,3.5-5.6,3.5c-5.1,0-10.1,0-15.2,0c-1.6,0-3.2,0-4.8,0
		c-0.2,0-0.4,0.1-0.5,0.2c-3.3,2.6-6.9,4.4-11,5.4c-1.5,0.3-3,0.6-4.5,0.7c-1.4,0.1-2.8,0.2-4.2,0c-1.1-0.1-2.2-0.2-3.3-0.4
		c-4.6-0.9-8.8-2.8-12.5-5.7c-0.1-0.1-0.4-0.2-0.5-0.2c-5,0-10,0-15,0c-1.6,0-3.2,0-4.8,0c-3.2,0.1-5.6-2.1-6.4-4.8
		c-0.1-0.4-0.2-0.8-0.2-1.1c-0.1-0.4-0.1-0.5-0.6-0.5c-2,0-4,0-6.1,0c-2.7,0-4.9-1.2-6.3-3.5c-0.5-0.8-0.8-1.6-0.9-2.6
		c0-0.2-0.1-0.2-0.3-0.2c-2,0-4.1,0-6.1,0c-1.9,0-3.6-0.4-5.2-1.5c-1.7-1.1-2.8-2.6-3.2-4.6c0-0.3-0.2-0.3-0.4-0.3c-2,0-3.9,0-5.9,0
		c-2.3,0-4.4-0.7-6.2-2.1c-1.3-1-2.3-2.4-2.6-4.1c0-0.1-0.1-0.1-0.2-0.2c-0.2,0-0.3,0-0.5,0c-1.8,0-3.6,0.1-5.4,0
		c-3.5-0.1-6.3-1.4-8.3-4.3c-0.9-1.3-1.3-2.8-1.3-4.3c0-0.5,0.3-0.9,0.9-0.9c10.5,0,21.1,0,31.6,0C37.8,7.5,40.7,7.5,43.5,7.5
		C43.5,7.5,43.5,7.5,43.5,7.5z M4.2,9.1c0,0.1,0,0.1,0,0.2c0.3,2.2,1.6,3.8,3.4,4.9c1.6,1,3.3,1.3,5.1,1.3c6.5,0,13,0,19.5,0
		c15.3,0,30.5,0,45.8,0c0.4,0,0.8,0,1.1,0c0.5,0,0.8,0.5,0.8,1c-0.1,0.8-0.3,1.7-0.3,2.5c-0.1,2.4,0,4.8,0.6,7.2
		c0.8,3.5,2.2,6.8,4.3,9.7c1.3,1.9,2.9,3.6,4.7,5.1c2.8,2.4,6,4.1,9.4,5.2c2.5,0.8,5.2,1.2,7.8,1.2c2.7,0,5.4-0.4,8-1.2
		c2.5-0.8,4.9-1.9,7.1-3.4c2.6-1.7,4.8-3.8,6.6-6.3c1.7-2.2,3-4.6,3.8-7.3c0.9-2.7,1.4-5.5,1.4-8.3c0-0.8,0-1.6-0.1-2.4
		c0-0.7-0.1-1.4-0.2-2.1c0-0.5,0.3-0.9,0.8-0.9c0.2,0,0.4,0,0.6,0c15.8,0,31.6,0,47.5,0c6.3,0,12.5,0,18.8,0c1.3,0,2.5-0.3,3.6-0.8
		c2.3-1,3.8-2.6,4.4-5.1c0.1-0.5,0.1-0.5-0.4-0.5c-4.2,0-8.4,0-12.6,0c-12.6,0-25.1,0-37.7,0c-9.6,0-19.2,0-28.8,0
		c-0.8,0-1.4,0.3-2,0.7c-1,0.8-1.5,2.2-0.9,3.8c0.7,1.9,1.1,3.9,1.1,5.9c0.1,1.9-0.1,3.8-0.5,5.6c-0.7,2.9-1.9,5.5-3.7,7.9
		c-2,2.7-4.6,4.8-7.6,6.3c-2.3,1.1-4.7,1.8-7.3,2.1c-1.4,0.1-2.9,0.1-4.3,0c-2-0.2-3.9-0.7-5.7-1.4c-3.7-1.5-6.8-4-9.1-7.2
		c-2.4-3.4-3.7-7.2-3.9-11.3c-0.1-2.7,0.3-5.4,1.2-8c0.2-0.5,0.3-1,0.2-1.6C86.5,10.1,85,9,83.4,9.1c-15.8,0-31.6,0-47.5,0
		c-10.5,0-20.9,0-31.4,0C4.4,9.1,4.3,9.1,4.2,9.1z M19.8,17c0.2,0.4,0.3,0.8,0.4,1.1c0.8,1.5,2,2.4,3.5,3c1.3,0.5,2.6,0.7,4,0.7
		c13.9,0,27.8,0,41.7,0c2.7,0,5.5,0,8.2,0c0.4,0,0.4,0,0.4-0.4c0-1.2,0.1-2.5,0.1-3.7c0-0.6,0.1-0.6-0.6-0.6c-19.1,0-38.3,0-57.4,0
		C20,17,19.9,17,19.8,17z M134.7,17c0,0.1,0,0.2,0,0.3c0.1,1.4,0.1,2.7,0.2,4.1c0,0.4,0,0.4,0.4,0.4c6.5,0,12.9,0,19.4,0
		c10.3,0,20.6,0,30.9,0c1.3,0,2.5-0.2,3.7-0.7c1.8-0.7,3.1-1.9,3.7-3.7c0.1-0.3,0.1-0.3-0.2-0.3c-1.5,0-3.1,0-4.6,0
		c-17.7,0-35.3,0-53,0C135,17,134.9,17,134.7,17z M34.8,23.3c0,0.1,0,0.2,0,0.3c0.2,0.7,0.5,1.4,1,2c1.4,1.7,3.2,2.5,5.4,2.5
		c6.1,0,12.2,0,18.3,0c6.3,0,12.5,0,18.8,0c0.7,0,0.7,0,0.5-0.7c-0.3-1.2-0.5-2.5-0.7-3.7c-0.1-0.4,0-0.4-0.4-0.4
		c-5.5,0-11,0-16.4,0c-8.5,0-17.1,0-25.6,0C35.4,23.3,35.1,23.3,34.8,23.3z M133.9,28.1c0.1,0,0.2,0,0.2,0c2.9,0,5.8,0,8.7,0
		c9.5,0,19,0,28.5,0c1.5,0,3-0.4,4.3-1.2c1.2-0.8,2.1-1.9,2.4-3.3c0.1-0.2,0-0.3-0.2-0.3c-0.3,0-0.7,0-1,0c-13.6,0-27.3,0-40.9,0
		c-0.3,0-0.6,0-0.9,0c-0.1,0-0.2,0-0.2,0.2c-0.1,1.4-0.4,2.8-0.7,4.1C133.9,27.8,133.9,27.9,133.9,28.1z M163.3,29.7
		c-0.1,0-0.3,0-0.4,0c-9.7,0-19.5,0-29.2,0c-0.1,0-0.2,0-0.2,0c-0.1,0-0.2,0.1-0.2,0.2c-0.5,1.4-1.1,2.7-1.8,4
		c-0.1,0.2-0.2,0.3-0.3,0.6c0.5,0,0.9,0,1.3,0c2,0,4.1,0,6.1,0c6.3,0,12.6,0,18.9,0c1.7,0,3.2-0.6,4.4-1.8
		C162.7,31.9,163.1,30.9,163.3,29.7z M49.6,29.7c0.1,0.9,0.4,1.6,0.9,2.3c1.2,1.7,3,2.5,5.1,2.5c8.6,0,17.3,0,25.9,0
		c0.1,0,0.2,0,0.2,0c0,0,0-0.1,0-0.1c-0.8-1.3-1.4-2.7-2-4.2c-0.2-0.5-0.2-0.5-0.6-0.5c-9.7,0-19.5,0-29.2,0
		C49.8,29.7,49.7,29.7,49.6,29.7z M86.7,40.9c-0.1-0.1-0.1-0.1-0.1-0.2c-0.1-0.1-0.1-0.1-0.2-0.2c-1.3-1.2-2.4-2.6-3.4-4.1
		c-0.2-0.3-0.3-0.4-0.7-0.4c-6.2,0-12.4,0-18.6,0c-0.1,0-0.2,0-0.4,0c0.1,0.4,0.2,0.9,0.3,1.2c0.5,1.5,1.4,2.7,2.9,3.3
		c0.8,0.3,1.6,0.3,2.5,0.3c5.7,0,11.4,0,17,0C86.3,40.9,86.5,40.9,86.7,40.9z M126.2,40.8c0.1,0,0.2,0,0.2,0c2.4,0,4.8,0,7.2,0
		c3.8,0,7.5,0,11.3,0c0.7,0,1.3-0.2,1.9-0.5c1.6-0.9,2.4-2.3,2.7-4c0.1-0.3-0.1-0.3-0.3-0.3c-6.2,0-12.4,0-18.7,0
		c-0.2,0-0.3,0.1-0.4,0.2c-0.9,1.4-2,2.7-3.1,3.8C126.7,40.3,126.5,40.6,126.2,40.8z"/>
	<path d="M106.4,36.2c-8.5,0-16.2-7.1-15.7-16.6c0.4-8.1,7.2-14.9,15.9-14.9c8.7,0,16.2,7.3,15.7,16.6
		C121.9,29.4,115,36.3,106.4,36.2z M99.6,27.4c0-0.1,0-0.2-0.1-0.3c-0.7-1.8-1-3.6-1.1-5.5c0-0.4,0-0.4-0.5-0.4c-1.9,0-3.7,0-5.6,0
		c-0.1,0-0.1,0-0.2,0c0,0.4,0,0.7,0.1,1.1c0.3,2.3,1.2,4.4,2.5,6.3c0.1,0.2,0.3,0.2,0.5,0.1c0.7-0.3,1.5-0.5,2.3-0.8
		C98.2,27.8,98.9,27.6,99.6,27.4z M113.2,13.4c0,0.1,0.1,0.2,0.1,0.3c0.6,1.8,1,3.7,1.1,5.6c0,0.2,0.1,0.3,0.3,0.3
		c1.9,0,3.7,0,5.6,0c0.1,0,0.2,0,0.3,0c0-0.4-0.1-0.7-0.1-1.1c-0.3-2.3-1.2-4.4-2.5-6.3c-0.1-0.2-0.3-0.2-0.5-0.1
		c-0.5,0.2-1.1,0.4-1.6,0.6C115.1,12.9,114.2,13.2,113.2,13.4z M114.5,21.2c0,0.1,0,0.1,0,0.1c-0.1,2-0.4,4-1.2,5.8
		c-0.1,0.2,0,0.3,0.2,0.3c1.3,0.4,2.6,0.8,3.9,1.2c0.6,0.2,0.5,0.3,0.8-0.3c1.4-2.1,2.2-4.4,2.5-6.9c0-0.3,0-0.3-0.3-0.3
		c-1.8,0-3.6,0-5.5,0C114.8,21.2,114.6,21.2,114.5,21.2z M92.2,19.6c0.1,0,0.1,0,0.2,0c1.9,0,3.9,0,5.8,0c0.2,0,0.2-0.1,0.3-0.3
		c0-0.3,0.1-0.7,0.1-1c0.1-1.6,0.5-3.2,1-4.7c0.1-0.3,0.1-0.3-0.2-0.4c-1.3-0.4-2.6-0.8-4-1.2C95.1,12,95,12,94.8,12.2
		c-1.4,2-2.2,4.2-2.5,6.7C92.2,19.1,92.2,19.4,92.2,19.6z M102.8,21.2C102.8,21.2,102.8,21.2,102.8,21.2c-0.9,0-1.7,0-2.6,0
		c-0.2,0-0.3,0-0.2,0.2c0,0.3,0,0.6,0.1,0.9c0.2,1.5,0.5,3,1,4.5c0.1,0.2,0.2,0.3,0.4,0.3c1.3-0.1,2.5-0.3,3.8-0.4
		c0.2,0,0.3-0.1,0.3-0.3c0-1.6,0-3.2,0-4.9c0-0.3-0.1-0.3-0.3-0.3C104.5,21.2,103.7,21.2,102.8,21.2z M110,21.2
		C110,21.2,110,21.2,110,21.2c-0.8,0-1.6,0-2.5,0c-0.3,0-0.4,0.1-0.4,0.4c0,1.6,0,3.2,0,4.9c0,0.2,0.1,0.3,0.2,0.3
		c1.3,0.1,2.6,0.2,3.9,0.4c0.2,0,0.3,0,0.4-0.2c0.6-1.7,1-3.5,1.1-5.3c0-0.2,0-0.3-0.3-0.3C111.7,21.2,110.9,21.2,110,21.2z
		 M110,19.6c0.8,0,1.7,0,2.5,0c0.2,0,0.3,0,0.3-0.2c-0.1-0.6-0.1-1.3-0.2-1.9c-0.2-1.1-0.6-2.2-0.9-3.3c-0.1-0.5,0-0.4-0.6-0.4
		c-1.2,0.1-2.4,0.2-3.6,0.3c-0.2,0-0.3,0.1-0.3,0.3c0,1.6,0,3.2,0,4.8c0,0.3,0.1,0.3,0.3,0.3C108.4,19.6,109.2,19.6,110,19.6z
		 M102.8,19.6C102.8,19.6,102.8,19.6,102.8,19.6c0.8,0,1.7,0,2.5,0c0.2,0,0.3-0.1,0.3-0.3c0-1.6,0-3.2,0-4.9c0-0.2-0.1-0.3-0.3-0.3
		c-1.2-0.1-2.3-0.2-3.5-0.3c-0.6-0.1-0.6-0.1-0.8,0.5c-0.6,1.6-0.9,3.3-1,5c0,0.3,0,0.4,0.3,0.3C101.2,19.6,102,19.6,102.8,19.6z
		 M96.1,30.2c1.1,1.1,2.3,2.1,3.7,2.8c1.4,0.7,2.8,1.2,4.3,1.4c-0.2-0.2-0.3-0.4-0.5-0.6c-1.3-1.4-2.4-3-3.2-4.7
		c-0.1-0.1-0.1-0.2-0.3-0.2c-1.2,0.4-2.5,0.7-3.7,1.1C96.3,30.1,96.2,30.2,96.1,30.2z M108.7,6.4c0.1,0.1,0.1,0.2,0.2,0.2
		c0.3,0.3,0.6,0.7,0.9,1c1,1.2,1.9,2.6,2.6,4c0.1,0.2,0.2,0.2,0.3,0.2c1.2-0.3,2.3-0.7,3.5-1c0.5-0.2,0.5-0.2,0.1-0.6c0,0,0,0,0,0
		c-1.8-1.7-3.9-2.8-6.2-3.5C109.7,6.6,109.3,6.5,108.7,6.4z M116.8,30.2c-0.1-0.1-0.2-0.1-0.3-0.2c-1.2-0.4-2.4-0.7-3.6-1.1
		c-0.2-0.1-0.3,0-0.4,0.2c-0.9,1.9-2.1,3.5-3.5,5c-0.1,0.1-0.1,0.1-0.2,0.3C111.9,33.9,114.5,32.5,116.8,30.2z M104.1,6.5
		C104.1,6.4,104.1,6.4,104.1,6.5c-0.2,0-0.3,0-0.4,0c-2.8,0.6-5.3,1.9-7.3,3.9c-0.3,0.2-0.2,0.3,0.1,0.4c1.2,0.4,2.3,0.7,3.5,1.1
		c0.3,0.1,0.4,0,0.5-0.2c0.8-1.7,1.9-3.3,3.2-4.7C103.8,6.8,104,6.6,104.1,6.5z M101.9,28.6c1,1.9,2.2,3.5,3.7,5c0-0.1,0-0.2,0-0.2
		c0-0.5,0-1,0-1.5c0-1.1,0-2.3,0-3.4c0-0.2-0.1-0.3-0.3-0.3c-0.4,0-0.8,0-1.2,0.1C103.4,28.4,102.7,28.5,101.9,28.6z M111,28.6
		c-1.2-0.1-2.4-0.2-3.6-0.3c-0.2,0-0.2,0.1-0.2,0.3c0,1.6,0,3.2,0,4.8c0,0.1,0,0.1,0.1,0.2C108.8,32.1,110,30.5,111,28.6z
		 M107.2,7.3c0,0,0,0.1,0,0.1c0,1.6,0,3.3,0,4.9c0,0.2,0.1,0.2,0.2,0.2c0.6,0,1.2,0,1.7-0.1c0.6-0.1,1.1-0.1,1.7-0.2
		C110.7,11.2,108,7.6,107.2,7.3z M101.9,12.3c1.2,0.1,2.3,0.2,3.4,0.3c0.3,0,0.3-0.1,0.3-0.3c0-1.6,0-3.2,0-4.8c0-0.1,0-0.1-0.1-0.2
		C104.1,8.7,102.9,10.4,101.9,12.3z"/>
	<path class="st0" d="M4.2,9.1c0.1,0,0.3,0,0.4,0c10.5,0,20.9,0,31.4,0c15.8,0,31.6,0,47.5,0c1.5,0,3,1.1,3.3,2.8
		c0.1,0.5,0,1.1-0.2,1.6c-0.9,2.6-1.3,5.2-1.2,8c0.2,4.1,1.5,7.9,3.9,11.3c2.4,3.3,5.4,5.7,9.1,7.2c1.8,0.8,3.7,1.2,5.7,1.4
		c1.4,0.2,2.9,0.2,4.3,0c2.5-0.3,5-0.9,7.3-2.1c3-1.5,5.6-3.6,7.6-6.3c1.8-2.4,3-5,3.7-7.9c0.4-1.9,0.6-3.7,0.5-5.6
		c-0.1-2-0.4-4-1.1-5.9c-0.6-1.6-0.1-3,0.9-3.8c0.6-0.5,1.2-0.7,2-0.7c9.6,0,19.2,0,28.8,0c12.6,0,25.1,0,37.7,0c4.2,0,8.4,0,12.6,0
		c0.5,0,0.5,0,0.4,0.5c-0.6,2.5-2.1,4.1-4.4,5.1c-1.1,0.5-2.4,0.8-3.6,0.8c-6.3,0-12.5,0-18.8,0c-15.8,0-31.6,0-47.5,0
		c-0.2,0-0.4,0-0.6,0c-0.5,0-0.9,0.3-0.8,0.9c0.1,0.7,0.2,1.4,0.2,2.1c0,0.8,0.1,1.6,0.1,2.4c0,2.9-0.5,5.6-1.4,8.3
		c-0.9,2.6-2.2,5-3.8,7.3c-1.8,2.5-4,4.6-6.6,6.3c-2.2,1.5-4.6,2.6-7.1,3.4c-2.6,0.8-5.2,1.2-8,1.2c-2.7,0-5.3-0.4-7.8-1.2
		c-3.5-1.1-6.6-2.8-9.4-5.2c-1.8-1.5-3.3-3.2-4.7-5.1c-2.1-2.9-3.5-6.2-4.3-9.7c-0.5-2.4-0.7-4.8-0.6-7.2c0-0.8,0.2-1.7,0.3-2.5
		c0.1-0.5-0.3-0.9-0.8-1c-0.4,0-0.8,0-1.1,0c-15.3,0-30.5,0-45.8,0c-6.5,0-13,0-19.5,0c-1.8,0-3.6-0.4-5.1-1.3
		C5.7,13,4.5,11.4,4.2,9.2C4.2,9.2,4.2,9.2,4.2,9.1z"/>
	<path class="st0" d="M19.8,17c0.2,0,0.3,0,0.3,0c19.1,0,38.3,0,57.4,0c0.6,0,0.6,0,0.6,0.6C78,18.9,78,20.1,78,21.4
		c0,0.4,0,0.4-0.4,0.4c-2.7,0-5.5,0-8.2,0c-13.9,0-27.8,0-41.7,0c-1.4,0-2.7-0.2-4-0.7c-1.5-0.6-2.8-1.5-3.5-3
		C20,17.8,19.9,17.4,19.8,17z"/>
	<path class="st0" d="M134.7,17c0.2,0,0.3,0,0.4,0c17.7,0,35.3,0,53,0c1.5,0,3.1,0,4.6,0c0.3,0,0.3,0,0.2,0.3c-0.6,1.9-2,3-3.7,3.7
		c-1.2,0.5-2.4,0.7-3.7,0.7c-10.3,0-20.6,0-30.9,0c-6.5,0-12.9,0-19.4,0c-0.4,0-0.4,0-0.4-0.4c0-1.4-0.1-2.7-0.2-4.1
		C134.7,17.2,134.7,17.1,134.7,17z"/>
	<path class="st0" d="M34.8,23.3c0.3,0,0.6,0,0.9,0c8.5,0,17.1,0,25.6,0c5.5,0,11,0,16.4,0c0.4,0,0.4,0,0.4,0.4
		c0.2,1.2,0.4,2.5,0.7,3.7c0.2,0.7,0.2,0.7-0.5,0.7c-6.3,0-12.5,0-18.8,0c-6.1,0-12.2,0-18.3,0c-2.2,0-4-0.8-5.4-2.5
		c-0.5-0.6-0.8-1.3-1-2C34.8,23.5,34.8,23.5,34.8,23.3z"/>
	<path class="st0" d="M133.9,28.1c0-0.2,0.1-0.3,0.1-0.4c0.4-1.4,0.6-2.7,0.7-4.1c0-0.2,0.1-0.2,0.2-0.2c0.3,0,0.6,0,0.9,0
		c13.6,0,27.3,0,40.9,0c0.3,0,0.7,0,1,0c0.2,0,0.3,0.1,0.2,0.3c-0.4,1.4-1.2,2.5-2.4,3.3c-1.3,0.8-2.7,1.2-4.3,1.2
		c-9.5,0-19,0-28.5,0c-2.9,0-5.8,0-8.7,0C134,28.1,134,28.1,133.9,28.1z"/>
	<path class="st0" d="M163.3,29.7c-0.2,1.1-0.7,2.1-1.5,2.9c-1.2,1.2-2.7,1.8-4.4,1.8c-6.3,0-12.6,0-18.9,0c-2,0-4.1,0-6.1,0
		c-0.4,0-0.8,0-1.3,0c0.1-0.2,0.2-0.4,0.3-0.6c0.7-1.3,1.3-2.6,1.8-4c0-0.1,0.1-0.1,0.2-0.2c0.1,0,0.2,0,0.2,0c9.7,0,19.5,0,29.2,0
		C163.1,29.7,163.2,29.7,163.3,29.7z"/>
	<path class="st0" d="M49.6,29.7c0.1,0,0.2,0,0.3,0c9.7,0,19.5,0,29.2,0c0.5,0,0.5,0,0.6,0.5c0.5,1.5,1.2,2.9,2,4.2c0,0,0,0,0,0.1
		c-0.1,0-0.2,0-0.2,0c-8.6,0-17.3,0-25.9,0c-2.1,0-3.8-0.7-5.1-2.5C50,31.4,49.7,30.6,49.6,29.7z"/>
	<path class="st0" d="M86.7,40.9c-0.2,0-0.4,0-0.6,0c-5.7,0-11.4,0-17,0c-0.8,0-1.7,0-2.5-0.3c-1.5-0.6-2.4-1.8-2.9-3.3
		c-0.1-0.4-0.2-0.8-0.3-1.2c0.2,0,0.3,0,0.4,0c6.2,0,12.4,0,18.6,0c0.3,0,0.5,0.1,0.7,0.4c1,1.5,2.1,2.8,3.4,4.1
		c0.1,0.1,0.1,0.1,0.2,0.2C86.6,40.7,86.6,40.8,86.7,40.9z"/>
	<path class="st0" d="M126.2,40.8c0.3-0.3,0.5-0.5,0.7-0.7c1.2-1.2,2.2-2.5,3.1-3.8c0.1-0.2,0.2-0.2,0.4-0.2c6.2,0,12.4,0,18.7,0
		c0.2,0,0.4,0,0.3,0.3c-0.3,1.7-1.1,3.1-2.7,4c-0.6,0.3-1.2,0.5-1.9,0.5c-3.8,0-7.5,0-11.3,0c-2.4,0-4.8,0-7.2,0
		C126.4,40.9,126.4,40.9,126.2,40.8z"/>
	<path class="st0" d="M99.6,27.4c-0.7,0.2-1.4,0.4-2.1,0.6c-0.8,0.2-1.5,0.5-2.3,0.8c-0.2,0.1-0.4,0.1-0.5-0.1
		c-1.3-1.9-2.2-4-2.5-6.3c-0.1-0.4-0.1-0.7-0.1-1.1c0.1,0,0.2,0,0.2,0c1.9,0,3.7,0,5.6,0c0.4,0,0.4,0,0.5,0.4
		c0.1,1.9,0.4,3.7,1.1,5.5C99.6,27.2,99.6,27.3,99.6,27.4z"/>
	<path class="st0" d="M113.2,13.4c1-0.3,1.9-0.5,2.8-0.8c0.5-0.2,1.1-0.4,1.6-0.6c0.2-0.1,0.3-0.1,0.5,0.1c1.3,1.9,2.2,4,2.5,6.3
		c0.1,0.4,0.1,0.7,0.1,1.1c-0.1,0-0.2,0-0.3,0c-1.9,0-3.7,0-5.6,0c-0.3,0-0.3-0.1-0.3-0.3c-0.1-1.9-0.5-3.8-1.1-5.6
		C113.3,13.6,113.2,13.5,113.2,13.4z"/>
	<path class="st0" d="M114.5,21.2c0.1,0,0.3,0,0.4,0c1.8,0,3.6,0,5.5,0c0.3,0,0.3,0.1,0.3,0.3c-0.2,2.5-1,4.8-2.5,6.9
		c-0.4,0.5-0.2,0.5-0.8,0.3c-1.3-0.4-2.6-0.8-3.9-1.2c-0.2-0.1-0.3-0.1-0.2-0.3c0.7-1.9,1-3.8,1.2-5.8
		C114.5,21.3,114.5,21.3,114.5,21.2z"/>
	<path class="st0" d="M92.2,19.6c0-0.2,0-0.5,0.1-0.7c0.3-2.4,1.1-4.6,2.5-6.7c0.2-0.2,0.3-0.3,0.6-0.2c1.3,0.4,2.6,0.8,4,1.2
		c0.3,0.1,0.4,0.1,0.2,0.4c-0.5,1.5-0.9,3.1-1,4.7c0,0.3-0.1,0.7-0.1,1c0,0.2-0.1,0.3-0.3,0.3c-1.9,0-3.9,0-5.8,0
		C92.3,19.6,92.3,19.6,92.2,19.6z"/>
	<path class="st0" d="M102.8,21.2c0.8,0,1.7,0,2.5,0c0.2,0,0.3,0.1,0.3,0.3c0,1.6,0,3.2,0,4.9c0,0.2-0.1,0.3-0.3,0.3
		c-1.3,0.1-2.5,0.2-3.8,0.4c-0.2,0-0.4,0-0.4-0.3c-0.5-1.5-0.9-3-1-4.5c0-0.3,0-0.6-0.1-0.9c0-0.2,0.1-0.2,0.2-0.2
		C101.1,21.2,102,21.2,102.8,21.2C102.8,21.2,102.8,21.2,102.8,21.2z"/>
	<path class="st0" d="M110,21.2c0.8,0,1.7,0,2.5,0c0.2,0,0.3,0.1,0.3,0.3c-0.1,1.8-0.5,3.6-1.1,5.3c-0.1,0.2-0.2,0.2-0.4,0.2
		c-1.3-0.1-2.6-0.3-3.9-0.4c-0.2,0-0.2-0.1-0.2-0.3c0-1.6,0-3.2,0-4.9c0-0.3,0.1-0.4,0.4-0.4C108.4,21.2,109.2,21.2,110,21.2
		C110,21.2,110,21.2,110,21.2z"/>
	<path class="st0" d="M110,19.6c-0.8,0-1.7,0-2.5,0c-0.2,0-0.3-0.1-0.3-0.3c0-1.6,0-3.2,0-4.8c0-0.3,0.1-0.3,0.3-0.3
		c1.2-0.1,2.4-0.2,3.6-0.3c0.5-0.1,0.5-0.1,0.6,0.4c0.3,1.1,0.6,2.2,0.9,3.3c0.1,0.6,0.1,1.3,0.2,1.9c0,0.2-0.1,0.2-0.3,0.2
		C111.7,19.6,110.9,19.6,110,19.6z"/>
	<path class="st0" d="M102.8,19.6c-0.8,0-1.7,0-2.5,0c-0.3,0-0.3-0.1-0.3-0.3c0.1-1.7,0.5-3.4,1-5c0.2-0.6,0.2-0.5,0.8-0.5
		c1.2,0.1,2.3,0.2,3.5,0.3c0.2,0,0.3,0.1,0.3,0.3c0,1.6,0,3.2,0,4.9c0,0.2-0.1,0.3-0.3,0.3C104.5,19.6,103.7,19.6,102.8,19.6
		C102.8,19.6,102.8,19.6,102.8,19.6z"/>
	<path class="st0" d="M96.1,30.2c0.1-0.1,0.2-0.1,0.3-0.1c1.2-0.4,2.5-0.7,3.7-1.1c0.2-0.1,0.3,0,0.3,0.2c0.8,1.7,1.9,3.3,3.2,4.7
		c0.2,0.2,0.3,0.3,0.5,0.6c-1.5-0.2-2.9-0.7-4.3-1.4C98.4,32.3,97.2,31.4,96.1,30.2z"/>
	<path class="st0" d="M108.7,6.4c0.5,0.1,1,0.2,1.4,0.3c2.4,0.6,4.4,1.8,6.2,3.5c0,0,0,0,0,0c0.4,0.4,0.4,0.4-0.1,0.6
		c-1.2,0.4-2.3,0.7-3.5,1c-0.2,0.1-0.3,0-0.3-0.2c-0.7-1.5-1.6-2.8-2.6-4c-0.3-0.4-0.6-0.7-0.9-1C108.9,6.6,108.8,6.5,108.7,6.4z"/>
	<path class="st0" d="M116.8,30.2c-2.3,2.2-4.9,3.7-8,4.2c0.1-0.1,0.2-0.2,0.2-0.3c1.4-1.5,2.6-3.1,3.5-5c0.1-0.2,0.2-0.3,0.4-0.2
		c1.2,0.4,2.4,0.7,3.6,1.1C116.5,30.1,116.6,30.2,116.8,30.2z"/>
	<path class="st0" d="M104.1,6.5c-0.1,0.2-0.3,0.3-0.4,0.5c-1.3,1.4-2.4,3-3.2,4.7c-0.1,0.2-0.2,0.3-0.5,0.2
		c-1.2-0.4-2.3-0.7-3.5-1.1c-0.3-0.1-0.3-0.2-0.1-0.4c2.1-2,4.5-3.3,7.3-3.9C103.8,6.5,103.9,6.4,104.1,6.5
		C104.1,6.4,104.1,6.4,104.1,6.5z"/>
	<path class="st0" d="M101.9,28.6c0.8-0.1,1.5-0.2,2.2-0.2c0.4,0,0.8,0,1.2-0.1c0.2,0,0.3,0.1,0.3,0.3c0,1.1,0,2.3,0,3.4
		c0,0.5,0,1,0,1.5c0,0,0,0.1,0,0.2C104.1,32.2,102.9,30.5,101.9,28.6z"/>
	<path class="st0" d="M111,28.6c-1,1.9-2.2,3.6-3.7,5.1c0-0.1-0.1-0.2-0.1-0.2c0-1.6,0-3.2,0-4.8c0-0.1,0-0.3,0.2-0.3
		C108.6,28.4,109.7,28.5,111,28.6z"/>
	<path class="st0" d="M107.2,7.3c0.7,0.3,3.4,3.9,3.6,4.9c-0.6,0.1-1.1,0.2-1.7,0.2c-0.6,0.1-1.2,0.1-1.7,0.1c-0.2,0-0.2,0-0.2-0.2
		c0-1.6,0-3.3,0-4.9C107.2,7.4,107.2,7.3,107.2,7.3z"/>
	<path class="st0" d="M101.9,12.3c1-1.9,2.2-3.6,3.7-5.1c0,0.1,0.1,0.2,0.1,0.2c0,1.6,0,3.2,0,4.8c0,0.2-0.1,0.3-0.3,0.3
		C104.2,12.5,103.1,12.4,101.9,12.3z"/>
</g>
</svg>
